<svg width="266" height="187" viewBox="0 0 266 187" fill="none" xmlns="http://www.w3.org/2000/svg">
<g clip-path="url(#clip0)">
<path d="M50.4639 40.1444C58.8542 40.1444 65.6559 33.2565 65.6559 24.7597C65.6559 16.263 58.8542 9.37505 50.4639 9.37505C42.0736 9.37505 35.272 16.263 35.272 24.7597C35.272 33.2565 42.0736 40.1444 50.4639 40.1444Z" fill="#CA905B"/>
<path d="M124.379 82.4816C124.379 118.783 103.069 131.458 76.7813 131.458C50.494 131.458 29.184 118.783 29.184 82.4816C29.184 46.1806 76.7813 0 76.7813 0C76.7813 0 124.379 46.1806 124.379 82.4816Z" fill="#F2F2F2"/>
<path d="M75.0474 125.905L75.5349 95.5241L95.8219 57.9388L75.6114 90.7582L75.8305 77.0978L89.8123 49.9053L75.8884 73.4828L76.2824 48.914L91.2546 27.2653L76.3446 45.0505L76.5908 0L75.0431 59.6388L75.1703 57.1784L59.9482 33.5829L74.9263 61.9013L73.508 89.3404L73.4657 88.6122L55.9171 63.7814L73.4126 91.1851L73.2352 94.6166L73.2034 94.6683L73.2179 94.95L69.6196 164.566H74.4273L75.0042 128.608L92.4564 101.271L75.0474 125.905Z" fill="#3F3D56"/>
<path d="M266 97.3495C266 127.064 248.557 137.439 227.039 137.439C205.522 137.439 188.079 127.064 188.079 97.3495C188.079 67.6354 227.039 29.8343 227.039 29.8343C227.039 29.8343 266 67.6353 266 97.3495Z" fill="#F2F2F2"/>
<path d="M225.62 132.893L226.019 108.025L242.625 77.26L226.082 104.124L226.261 92.9426L237.706 70.684L226.309 89.9834L226.631 69.8727L238.886 52.1522L226.682 66.7105L226.883 29.8343L225.617 78.6514L225.721 76.6377L213.261 57.3234L225.521 80.5036L224.36 102.964L224.325 102.368L209.961 82.0423L224.282 104.474L224.137 107.283L224.111 107.325L224.123 107.555L221.177 164.539H225.112L225.585 135.106L239.87 112.729L225.62 132.893Z" fill="#3F3D56"/>
<path d="M131.646 170.317C204.352 170.317 263.292 167.299 263.292 163.578C263.292 159.856 204.352 156.839 131.646 156.839C58.94 156.839 0 159.856 0 163.578C0 167.299 58.94 170.317 131.646 170.317Z" fill="#3F3D56"/>
<path d="M211.844 175.866C224.296 175.866 234.391 175.349 234.391 174.712C234.391 174.074 224.296 173.557 211.844 173.557C199.391 173.557 189.296 174.074 189.296 174.712C189.296 175.349 199.391 175.866 211.844 175.866Z" fill="#3F3D56"/>
<path d="M130.252 187C142.705 187 152.8 186.483 152.8 185.846C152.8 185.208 142.705 184.692 130.252 184.692C117.799 184.692 107.704 185.208 107.704 185.846C107.704 186.483 117.799 187 130.252 187Z" fill="#3F3D56"/>
<path d="M68.3506 179.147C96.8009 179.147 119.864 177.967 119.864 176.51C119.864 175.054 96.8009 173.873 68.3506 173.873C39.9004 173.873 16.837 175.054 16.837 176.51C16.837 177.967 39.9004 179.147 68.3506 179.147Z" fill="#3F3D56"/>
<path d="M23.0452 155.114C33.402 155.114 41.7978 146.611 41.7978 136.123C41.7978 125.635 33.402 117.133 23.0452 117.133C12.6884 117.133 4.2926 125.635 4.2926 136.123C4.2926 146.611 12.6884 155.114 23.0452 155.114Z" fill="#2F2E41"/>
<path d="M20.0235 150.992L14.3269 150.924L14.2066 161.26L19.9032 161.328L20.0235 150.992Z" fill="#2F2E41"/>
<path d="M31.4167 151.128L25.7201 151.06L25.5998 161.396L31.2964 161.464L31.4167 151.128Z" fill="#2F2E41"/>
<path d="M23.6996 161.494C23.7111 160.498 21.5952 159.665 18.9734 159.634C16.3516 159.603 14.2168 160.385 14.2052 161.38C14.1937 162.376 16.3096 163.208 18.9314 163.24C21.5532 163.271 23.688 162.489 23.6996 161.494Z" fill="#2F2E41"/>
<path d="M35.0956 161.389C35.1071 160.393 32.9912 159.561 30.3694 159.53C27.7476 159.498 25.6128 160.28 25.6012 161.276C25.5897 162.271 27.7056 163.104 30.3274 163.135C32.9492 163.167 35.084 162.385 35.0956 161.389Z" fill="#2F2E41"/>
<path d="M23.5759 137.812C27.1155 137.812 29.985 134.906 29.985 131.322C29.985 127.737 27.1155 124.831 23.5759 124.831C20.0362 124.831 17.1667 127.737 17.1667 131.322C17.1667 134.906 20.0362 137.812 23.5759 137.812Z" fill="white"/>
<path d="M23.5758 133.485C24.7557 133.485 25.7122 132.516 25.7122 131.322C25.7122 130.127 24.7557 129.158 23.5758 129.158C22.3959 129.158 21.4395 130.127 21.4395 131.322C21.4395 132.516 22.3959 133.485 23.5758 133.485Z" fill="#3F3D56"/>
<path d="M5.06133 118.247C3.62715 111.362 8.54779 104.481 16.0519 102.878C23.556 101.275 30.8019 105.557 32.2361 112.442C33.6703 119.326 28.6806 121.8 21.1765 123.403C13.6724 125.006 6.49551 125.132 5.06133 118.247Z" fill="#525065"/>
<path d="M51.6508 146.718C51.6508 159.957 43.8792 164.58 34.2916 164.58C34.0695 164.58 33.8478 164.577 33.6264 164.572C33.1822 164.563 32.7422 164.541 32.3075 164.511C23.6549 163.891 16.9324 159.031 16.9324 146.718C16.9324 133.975 33.0119 117.896 34.2197 116.706L34.2218 116.704C34.2684 116.658 34.2916 116.636 34.2916 116.636C34.2916 116.636 51.6508 133.478 51.6508 146.718Z" fill="#F2F2F2"/>
<path d="M33.6592 162.554L40.0082 153.57L33.6433 163.541L33.6264 164.572C33.1821 164.563 32.7422 164.541 32.3075 164.511L32.9918 151.265L32.9865 151.163L32.9981 151.143L33.0626 149.892L26.6818 139.897L33.0827 148.954L33.0975 149.22L33.6147 139.212L28.152 128.883L33.6814 137.455L34.2197 116.706L34.2218 116.636V116.704L34.1319 133.066L39.5703 126.579L34.1097 134.475L33.9659 143.436L39.0436 134.836L33.9447 144.754L33.8643 149.736L41.2362 137.767L33.8368 151.474L33.6592 162.554Z" fill="#3F3D56"/>
<path d="M169.126 154.908C179.483 154.908 187.878 146.406 187.878 135.918C187.878 125.43 179.483 116.927 169.126 116.927C158.769 116.927 150.373 125.43 150.373 135.918C150.373 146.406 158.769 154.908 169.126 154.908Z" fill="#2F2E41"/>
<path d="M170.726 151.012L165.281 152.706L168.279 162.587L173.725 160.892L170.726 151.012Z" fill="#2F2E41"/>
<path d="M181.617 147.623L176.172 149.318L179.17 159.198L184.616 157.504L181.617 147.623Z" fill="#2F2E41"/>
<path d="M173.375 163.013C175.881 162.233 177.679 160.829 177.39 159.877C177.101 158.925 174.835 158.786 172.329 159.566C169.823 160.346 168.025 161.75 168.314 162.702C168.603 163.654 170.869 163.793 173.375 163.013Z" fill="#2F2E41"/>
<path d="M184.197 159.393C186.703 158.613 188.5 157.21 188.212 156.258C187.923 155.306 185.657 155.167 183.151 155.947C180.644 156.727 178.847 158.131 179.136 159.082C179.424 160.034 181.69 160.173 184.197 159.393Z" fill="#2F2E41"/>
<path d="M168.185 137.671C171.725 137.671 174.594 134.766 174.594 131.181C174.594 127.596 171.725 124.691 168.185 124.691C164.645 124.691 161.776 127.596 161.776 131.181C161.776 134.766 164.645 137.671 168.185 137.671Z" fill="white"/>
<path d="M168.185 133.345C169.365 133.345 170.321 132.376 170.321 131.181C170.321 129.986 169.365 129.018 168.185 129.018C167.005 129.018 166.049 129.986 166.049 131.181C166.049 132.376 167.005 133.345 168.185 133.345Z" fill="#3F3D56"/>
<path d="M146.615 124.448C143.175 118.334 145.789 110.261 152.453 106.417C159.116 102.572 167.307 104.412 170.746 110.526C174.186 116.64 170.179 120.536 163.515 124.381C156.851 128.225 150.054 130.562 146.615 124.448Z" fill="#525065"/>
<path d="M135.681 144.293C135.681 156.446 128.547 160.69 119.746 160.69C119.543 160.69 119.339 160.688 119.136 160.683C118.728 160.674 118.324 160.654 117.925 160.627C109.982 160.058 103.812 155.596 103.812 144.293C103.812 132.596 118.572 117.837 119.68 116.744L119.682 116.742C119.725 116.7 119.746 116.679 119.746 116.679C119.746 116.679 135.681 132.14 135.681 144.293Z" fill="#F2F2F2"/>
<path d="M119.166 158.831L124.994 150.584L119.151 159.736L119.136 160.683C118.728 160.674 118.324 160.655 117.925 160.627L118.553 148.468L118.548 148.374L118.559 148.356L118.618 147.207L112.761 138.032L118.637 146.346L118.65 146.59L119.125 137.403L114.111 127.922L119.186 135.791L119.68 116.744L119.682 116.679V116.742L119.6 131.762L124.592 125.807L119.579 133.055L119.447 141.281L124.109 133.387L119.428 142.491L119.354 147.064L126.121 136.077L119.329 148.66L119.166 158.831Z" fill="#3F3D56"/>
<path d="M198.348 149.362C198.348 162.601 190.577 167.224 180.989 167.224C180.767 167.224 180.545 167.222 180.324 167.217C179.88 167.207 179.44 167.186 179.005 167.156C170.352 166.535 163.63 161.675 163.63 149.362C163.63 136.619 179.709 120.541 180.917 119.351L180.919 119.348C180.966 119.302 180.989 119.28 180.989 119.28C180.989 119.28 198.348 136.122 198.348 149.362Z" fill="#F2F2F2"/>
<path d="M180.357 165.199L186.706 156.215L180.341 166.185L180.324 167.217C179.88 167.207 179.44 167.186 179.005 167.156L179.689 153.91L179.684 153.807L179.696 153.788L179.76 152.537L173.379 142.541L179.78 151.598L179.795 151.864L180.312 141.856L174.849 131.528L180.379 140.099L180.917 119.351L180.919 119.28V119.348L180.829 135.71L186.268 129.224L180.807 137.12L180.663 146.08L185.741 137.481L180.642 147.399L180.562 152.38L187.934 140.411L180.534 154.118L180.357 165.199Z" fill="#3F3D56"/>
<path d="M170.317 147.286C171.013 145.799 167.785 142.771 163.106 140.524C158.428 138.277 154.07 137.661 153.373 139.148C152.677 140.636 155.905 143.663 160.584 145.91C165.262 148.158 169.62 148.774 170.317 147.286Z" fill="#2F2E41"/>
<path d="M25.9872 145.548C26.592 144.02 23.1858 141.199 18.3791 139.248C13.5724 137.297 9.18558 136.954 8.58077 138.483C7.97596 140.011 11.3822 142.831 16.1889 144.782C20.9955 146.733 25.3824 147.076 25.9872 145.548Z" fill="#2F2E41"/>
</g>
<defs>
<clipPath id="clip0">
<rect width="266" height="187" fill="white"/>
</clipPath>
</defs>
</svg>
