<svg width="307" height="257" viewBox="0 0 307 257" fill="none" xmlns="http://www.w3.org/2000/svg">
<g clip-path="url(#clip0)">
<path d="M14.2652 244.894C18.5236 252.813 27.5615 256.213 27.5615 256.213C27.5615 256.213 29.6951 246.773 25.4367 238.853C21.1783 230.934 12.1404 227.534 12.1404 227.534C12.1404 227.534 10.0068 236.974 14.2652 244.894Z" fill="#6A7B43"/>
<path d="M17.1922 242.288C24.8803 246.927 27.8413 256.14 27.8413 256.14C27.8413 256.14 18.3373 257.833 10.6491 253.194C2.96095 248.556 0 239.343 0 239.343C0 239.343 9.50402 237.65 17.1922 242.288Z" fill="#A1C84D"/>
<path d="M189.562 12.3378H141.593V13.025H189.562V12.3378Z" fill="#F2F2F2"/>
<path d="M176.542 12.8532H175.856V19.2097H176.542V12.8532Z" fill="#F2F2F2"/>
<path d="M155.641 12.8532H154.956V19.2097H155.641V12.8532Z" fill="#F2F2F2"/>
<path d="M213.889 45.323H165.92V46.0102H213.889V45.323Z" fill="#F2F2F2"/>
<path d="M179.625 39.1383H178.94V45.4948H179.625V39.1383Z" fill="#F2F2F2"/>
<path d="M200.526 39.1383H199.841V45.4948H200.526V39.1383Z" fill="#F2F2F2"/>
<path d="M277.619 60.7848H229.65V61.472H277.619V60.7848Z" fill="#F2F2F2"/>
<path d="M243.355 54.6001H242.67V60.9566H243.355V54.6001Z" fill="#F2F2F2"/>
<path d="M264.256 54.6001H263.571V60.9566H264.256V54.6001Z" fill="#F2F2F2"/>
<path d="M272.822 220.213H224.853V220.901H272.822V220.213Z" fill="#F2F2F2"/>
<path d="M238.558 214.029H237.873V220.385H238.558V214.029Z" fill="#F2F2F2"/>
<path d="M259.459 214.029H258.774V220.385H259.459V214.029Z" fill="#F2F2F2"/>
<path d="M190.932 109.919H142.964V110.606H190.932V109.919Z" fill="#F2F2F2"/>
<path d="M156.669 103.734H155.984V110.091H156.669V103.734Z" fill="#F2F2F2"/>
<path d="M177.57 103.734H176.884V110.091H177.57V103.734Z" fill="#F2F2F2"/>
<path d="M206.008 192.726H158.039V193.413H206.008V192.726Z" fill="#F2F2F2"/>
<path d="M171.745 186.541H171.06V192.897H171.745V186.541Z" fill="#F2F2F2"/>
<path d="M192.645 186.541H191.96V192.897H192.645V186.541Z" fill="#F2F2F2"/>
<path d="M282.758 167.643H234.789V168.33H282.758V167.643Z" fill="#F2F2F2"/>
<path d="M248.495 161.458H247.809V167.815H248.495V161.458Z" fill="#F2F2F2"/>
<path d="M269.395 161.458H268.71V167.815H269.395V161.458Z" fill="#F2F2F2"/>
<path d="M124.054 241.268H42.9231V240.682H123.47V212.295H49.7436L46.162 204.812L46.6883 204.559L50.1109 211.709H124.054V241.268Z" fill="#2F2E41"/>
<path d="M53.7211 255.608C57.1058 255.608 59.8497 252.856 59.8497 249.462C59.8497 246.068 57.1058 243.316 53.7211 243.316C50.3363 243.316 47.5925 246.068 47.5925 249.462C47.5925 252.856 50.3363 255.608 53.7211 255.608Z" fill="#3F3D56"/>
<path d="M114.132 255.608C117.516 255.608 120.26 252.856 120.26 249.462C120.26 246.068 117.516 243.316 114.132 243.316C110.747 243.316 108.003 246.068 108.003 249.462C108.003 252.856 110.747 255.608 114.132 255.608Z" fill="#3F3D56"/>
<path d="M185.34 122.741C187.435 122.741 189.134 121.038 189.134 118.937C189.134 116.836 187.435 115.132 185.34 115.132C183.245 115.132 181.546 116.836 181.546 118.937C181.546 121.038 183.245 122.741 185.34 122.741Z" fill="#3F3D56"/>
<path d="M132.731 202.637H41.5398L21.8081 137.96H153.052L152.933 138.34L132.731 202.637ZM41.9716 202.052H132.303L152.256 138.545H22.597L41.9716 202.052Z" fill="#2F2E41"/>
<path d="M125.613 199.271H45.5162L28.1851 141.91H143.461L143.356 142.248L125.613 199.271Z" fill="#F2F2F2"/>
<path d="M154.687 132.181L154.123 132.031L157.974 117.473H180.379V118.059H158.424L154.687 132.181Z" fill="#2F2E41"/>
<path d="M146.494 157.568H28.1845V158.153H146.494V157.568Z" fill="#2F2E41"/>
<path d="M139.718 179.132H34.7633V179.717H139.718V179.132Z" fill="#2F2E41"/>
<path d="M87.7202 138.252H87.1365V202.344H87.7202V138.252Z" fill="#2F2E41"/>
<path d="M113.852 138.234L109.663 202.324L110.245 202.362L114.435 138.272L113.852 138.234Z" fill="#2F2E41"/>
<path d="M61.0165 138.233L60.4339 138.271L64.5994 202.363L65.182 202.325L61.0165 138.233Z" fill="#2F2E41"/>
<path d="M307 255.979H0V256.666H307V255.979Z" fill="#2F2E41"/>
<path d="M204.008 21.2604C204.008 21.2604 209.017 35.5561 205.934 37.7555C202.852 39.9548 216.337 57.9161 216.337 57.9161L232.519 53.5174L223.658 38.4886C223.658 38.4886 222.502 23.4597 222.502 21.2604C222.502 19.061 204.008 21.2604 204.008 21.2604Z" fill="#A0616A"/>
<path opacity="0.1" d="M204.008 21.2604C204.008 21.2604 209.017 35.5561 205.934 37.7555C202.852 39.9548 216.337 57.9161 216.337 57.9161L232.519 53.5174L223.658 38.4886C223.658 38.4886 222.502 23.4597 222.502 21.2604C222.502 19.061 204.008 21.2604 204.008 21.2604Z" fill="black"/>
<path d="M195.601 123.163C195.601 123.163 194.139 141.491 195.601 151.022C197.063 160.552 199.256 186.944 199.256 186.944C199.256 186.944 199.256 236.796 207.298 237.529C215.339 238.262 221.188 238.996 221.919 236.063C222.65 233.131 218.264 231.664 220.457 230.198C222.65 228.732 223.381 223.6 220.457 217.735C217.533 211.87 220.457 152.488 220.457 152.488L234.347 189.877C234.347 189.877 235.809 220.668 237.271 225.066C238.733 229.465 235.809 237.529 240.927 238.262C246.044 238.996 251.892 234.597 254.817 233.131C257.741 231.664 250.43 231.664 251.892 230.931C253.355 230.198 257.741 227.999 256.279 227.266C254.817 226.533 253.355 191.343 253.355 191.343C253.355 191.343 249.334 116.199 244.216 113.266C239.099 110.334 235.809 115.385 235.809 115.385L195.601 123.163Z" fill="#2F2E41"/>
<path d="M208.76 234.597V240.462C208.76 240.462 202.18 256.405 208.76 256.405C215.339 256.405 220.457 258.057 220.457 255.857V236.063L208.76 234.597Z" fill="#2F2E41"/>
<path d="M251.893 234.587V240.451C251.893 240.451 258.472 256.394 251.893 256.394C245.313 256.394 240.196 258.046 240.196 255.847V236.053L251.893 234.587Z" fill="#2F2E41"/>
<path d="M214.243 31.8905C221.51 31.8905 227.402 25.9824 227.402 18.6944C227.402 11.4064 221.51 5.49834 214.243 5.49834C206.975 5.49834 201.084 11.4064 201.084 18.6944C201.084 25.9824 206.975 31.8905 214.243 31.8905Z" fill="#A0616A"/>
<path d="M210.222 43.2538C210.222 43.2538 213.877 54.2505 219.726 52.0512L225.574 49.8518L235.809 120.231C235.809 120.231 227.767 131.961 216.07 124.63C204.373 117.298 210.222 43.2538 210.222 43.2538Z" fill="#8C8C8C"/>
<path d="M220.457 41.0545L223.747 34.0899C223.747 34.0899 243.12 43.2538 246.044 46.1863C248.968 49.1187 248.968 53.5174 248.968 53.5174L243.851 71.8453C243.851 71.8453 245.313 112.167 245.313 113.633C245.313 115.099 250.43 123.163 246.775 120.231C243.12 117.298 242.389 114.366 239.464 118.765C236.54 123.163 229.961 128.295 229.961 128.295L220.457 41.0545Z" fill="#3F3D56"/>
<path d="M246.044 93.8388L243.851 114.366C243.851 114.366 230.692 126.096 233.616 126.829C236.54 127.562 238.002 124.63 238.002 124.63C238.002 124.63 243.12 129.761 246.044 126.829C248.968 123.896 256.279 96.0381 256.279 96.0381L246.044 93.8388Z" fill="#A0616A"/>
<path d="M214.523 0.0446232C211.606 -0.0599571 208.484 -0.111689 206.024 1.46478C204.893 2.25594 203.9 3.23033 203.087 4.34807C200.692 7.38493 198.622 11.206 199.512 14.9739L200.545 14.5697C200.545 15.5755 200.322 16.5687 199.892 17.4774C200.038 17.053 200.525 17.7391 200.395 18.1683L199.256 21.9138C201.128 21.2258 203.456 22.6188 203.741 24.5971C203.871 20.2468 204.321 15.2583 207.84 12.711C209.615 11.4264 211.861 11.0343 214.022 10.686C216.015 10.3648 218.105 10.0584 220.015 10.7166C221.924 11.3747 223.55 13.3331 223.117 15.3108C223.998 15.0066 224.983 15.622 225.418 16.4476C225.853 17.2732 225.876 18.2472 225.889 19.1809C226.827 19.846 227.895 18.5253 228.278 17.4385C229.176 14.8875 229.974 12.1721 229.49 9.5107C229.006 6.84934 226.844 4.306 224.146 4.29697C224.474 3.93631 224.648 3.46207 224.633 2.97456L222.41 2.78617C222.974 2.70602 223.493 2.43156 223.878 2.0098C222.986 2.99486 215.967 0.0963722 214.523 0.0446232Z" fill="#2F2E41"/>
<path d="M213.877 38.8551C213.877 38.8551 207.926 33.0068 205.784 33.3651C203.642 33.7233 200.718 38.8551 200.718 38.8551C200.718 38.8551 183.173 44.72 183.904 50.5849C184.635 56.4499 192.676 85.0414 192.676 85.0414C192.676 85.0414 199.256 119.498 193.407 123.163C187.559 126.829 221.188 136.359 221.919 131.961C222.65 127.562 224.112 83.5751 221.919 76.9771C219.726 70.3791 213.877 38.8551 213.877 38.8551Z" fill="#3F3D56"/>
<path d="M239.464 50.585H248.504C248.504 50.585 254.817 78.4433 255.548 81.3758C256.279 84.3083 257.741 98.2375 257.01 98.2375C256.279 98.2375 241.658 95.305 241.658 97.5043L239.464 50.585Z" fill="#3F3D56"/>
<path d="M239.158 119.571H204.552C201.175 103.993 200.893 88.941 204.552 74.5603H239.158C233.574 88.6824 233.225 103.631 239.158 119.571Z" fill="#F2F2F2"/>
<path d="M190.483 100.437L200.718 104.836C200.718 104.836 220.457 107.768 220.457 99.7037C220.457 91.6394 200.718 96.0381 200.718 96.0381L194.138 93.9284L190.483 100.437Z" fill="#A0616A"/>
<path d="M192.676 46.1863L183.904 48.3856L177.324 87.2407C177.324 87.2407 175.131 97.5043 178.786 98.2375C182.442 98.9706 192.676 104.836 192.676 104.836C192.676 104.836 194.139 93.8388 197.063 93.8388L189.752 87.9738L194.139 62.3148L192.676 46.1863Z" fill="#3F3D56"/>
<path d="M68.6119 121.258H20.6432V121.945H68.6119V121.258Z" fill="#F2F2F2"/>
<path d="M34.3485 115.073H33.6633V121.43H34.3485V115.073Z" fill="#F2F2F2"/>
<path d="M55.2492 115.073H54.5639V121.43H55.2492V115.073Z" fill="#F2F2F2"/>
<path d="M85.401 19.5533H37.4322V20.2405H85.401V19.5533Z" fill="#F2F2F2"/>
<path d="M72.3809 20.0687H71.6956V26.4252H72.3809V20.0687Z" fill="#F2F2F2"/>
<path d="M51.4802 20.0687H50.795V26.4252H51.4802V20.0687Z" fill="#F2F2F2"/>
<path d="M133.712 87.2417H85.7436V87.9289H133.712V87.2417Z" fill="#F2F2F2"/>
<path d="M120.692 87.7571H120.007V94.1136H120.692V87.7571Z" fill="#F2F2F2"/>
<path d="M99.7916 87.7571H99.1064V94.1136H99.7916V87.7571Z" fill="#F2F2F2"/>
<path d="M52.1655 86.8981H4.19675V87.5853H52.1655V86.8981Z" fill="#F2F2F2"/>
<path d="M39.1454 87.4135H38.4601V93.77H39.1454V87.4135Z" fill="#F2F2F2"/>
<path d="M18.2447 87.4135H17.5595V93.77H18.2447V87.4135Z" fill="#F2F2F2"/>
<path d="M109.728 52.5385H61.7593V53.2257H109.728V52.5385Z" fill="#F2F2F2"/>
<path d="M75.4646 46.3538H74.7793V52.7103H75.4646V46.3538Z" fill="#F2F2F2"/>
<path d="M96.3653 46.3538H95.68V52.7103H96.3653V46.3538Z" fill="#F2F2F2"/>
</g>
<defs>
<clipPath id="clip0">
<rect width="307" height="257" fill="white"/>
</clipPath>
</defs>
</svg>
