<svg width="245" height="216" viewBox="0 0 245 216" fill="none" xmlns="http://www.w3.org/2000/svg">
<g clip-path="url(#clip0)">
<path opacity="0.1" d="M79.4217 7.68182C86.5857 0.947931 97.8308 -0.432517 108.068 0.103605C140.219 1.79226 169.24 18.1815 194.344 36.723C203.434 43.4336 212.381 50.6674 218.279 59.9109C230.297 78.727 226.726 104.792 210.029 120.293C204.346 125.566 197.459 129.617 190.388 133.194C177.817 139.565 164.251 144.68 149.982 146.144C139.809 147.18 129.508 146.338 119.391 144.89C91.1303 140.834 63.3942 131.883 40.1364 116.571C29.9386 109.856 20.3269 101.506 16.1232 90.646C11.9195 79.7863 14.61 66.0077 25.0236 59.5665C29.3303 56.9066 34.4808 55.7048 39.5208 54.5756C46.9423 52.9155 54.4815 51.2786 61.177 47.9039C68.0957 44.4178 76.2849 37.6761 74.9115 29.9581C73.4497 21.6883 72.2676 14.4157 79.4217 7.68182Z" fill="#8F8F8F"/>
<path d="M167.989 173.24C167.989 173.24 174.135 161.743 183.389 158.43C187.279 157.067 190.646 154.408 192.983 150.852C194.081 149.155 195.028 147.355 195.814 145.475" stroke="#535461" stroke-width="2" stroke-miterlimit="10"/>
<path d="M201.636 143.349C200.581 144.432 195.669 145.548 195.669 145.548C195.669 145.548 196.873 140.397 197.928 139.316C198.434 138.797 199.115 138.512 199.821 138.523C200.527 138.533 201.199 138.84 201.691 139.375C202.183 139.91 202.453 140.629 202.443 141.374C202.433 142.119 202.142 142.83 201.636 143.349V143.349Z" fill="#8F8F8F"/>
<path d="M198.857 152.67C197.415 152.973 192.726 151.093 192.726 151.093C192.726 151.093 196.39 147.467 197.83 147.156C198.522 147.011 199.241 147.162 199.828 147.576C200.415 147.991 200.822 148.634 200.959 149.366C201.097 150.097 200.954 150.856 200.561 151.475C200.169 152.095 199.559 152.525 198.867 152.67H198.857Z" fill="#8F8F8F"/>
<path d="M188.74 162.756C187.35 162.238 184.193 158.12 184.193 158.12C184.193 158.12 189.098 156.939 190.482 157.446C190.819 157.561 191.131 157.745 191.4 157.989C191.669 158.233 191.889 158.531 192.047 158.866C192.206 159.201 192.299 159.566 192.322 159.939C192.345 160.313 192.297 160.687 192.181 161.041C192.065 161.395 191.883 161.72 191.647 161.999C191.41 162.277 191.123 162.503 190.802 162.663C190.482 162.822 190.134 162.913 189.78 162.929C189.426 162.945 189.073 162.886 188.74 162.756V162.756Z" fill="#8F8F8F"/>
<path d="M179.457 168.568C178.008 168.309 174.236 164.809 174.236 164.809C174.236 164.809 178.874 162.769 180.323 163.022C180.671 163.079 181.004 163.208 181.304 163.402C181.603 163.596 181.864 163.851 182.07 164.151C182.276 164.452 182.424 164.793 182.505 165.154C182.585 165.515 182.598 165.89 182.54 166.256C182.483 166.623 182.358 166.973 182.172 167.288C181.985 167.603 181.742 167.876 181.455 168.091C181.168 168.306 180.844 168.458 180.501 168.54C180.159 168.622 179.804 168.631 179.457 168.568V168.568Z" fill="#8F8F8F"/>
<path d="M188.62 147.068C188.62 148.622 191.279 153.121 191.279 153.121C191.279 153.121 193.942 148.622 193.942 147.071C193.942 146.326 193.662 145.611 193.163 145.084C192.664 144.557 191.987 144.261 191.281 144.261C190.575 144.261 189.899 144.557 189.4 145.084C188.901 145.611 188.62 146.326 188.62 147.071V147.068Z" fill="#8F8F8F"/>
<path d="M177.846 154.009C178.287 155.491 182.099 158.946 182.099 158.946C182.099 158.946 183.364 153.81 182.925 152.328C182.714 151.617 182.244 151.024 181.619 150.678C180.993 150.333 180.263 150.264 179.59 150.487C178.916 150.71 178.354 151.206 178.027 151.867C177.7 152.527 177.635 153.298 177.846 154.009V154.009Z" fill="#8F8F8F"/>
<path d="M168.252 162.271C168.448 163.81 171.653 167.897 171.653 167.897C171.653 167.897 173.723 163.061 173.527 161.523C173.433 160.784 173.065 160.115 172.504 159.663C171.943 159.211 171.234 159.012 170.535 159.112C169.835 159.211 169.202 159.599 168.774 160.192C168.345 160.785 168.158 161.533 168.252 162.271Z" fill="#8F8F8F"/>
<path opacity="0.25" d="M201.636 143.349C200.581 144.432 195.669 145.548 195.669 145.548C195.669 145.548 196.873 140.397 197.928 139.316C198.434 138.797 199.115 138.512 199.821 138.523C200.527 138.533 201.199 138.84 201.691 139.375C202.183 139.91 202.453 140.629 202.443 141.374C202.433 142.119 202.142 142.83 201.636 143.349V143.349Z" fill="black"/>
<path opacity="0.25" d="M198.857 152.67C197.415 152.973 192.726 151.093 192.726 151.093C192.726 151.093 196.39 147.467 197.83 147.156C198.522 147.011 199.241 147.162 199.828 147.576C200.415 147.991 200.822 148.634 200.959 149.366C201.097 150.097 200.954 150.856 200.561 151.475C200.169 152.095 199.559 152.525 198.867 152.67H198.857Z" fill="black"/>
<path opacity="0.25" d="M188.74 162.756C187.35 162.238 184.193 158.12 184.193 158.12C184.193 158.12 189.098 156.939 190.482 157.446C190.819 157.561 191.131 157.745 191.4 157.989C191.669 158.233 191.889 158.531 192.047 158.866C192.206 159.201 192.299 159.566 192.322 159.939C192.345 160.313 192.297 160.687 192.181 161.041C192.065 161.395 191.883 161.72 191.647 161.999C191.41 162.277 191.123 162.503 190.802 162.663C190.482 162.822 190.134 162.913 189.78 162.929C189.426 162.945 189.073 162.886 188.74 162.756V162.756Z" fill="black"/>
<path opacity="0.25" d="M179.457 168.568C178.008 168.309 174.236 164.809 174.236 164.809C174.236 164.809 178.874 162.769 180.323 163.022C180.671 163.079 181.004 163.208 181.304 163.402C181.603 163.596 181.864 163.851 182.07 164.151C182.276 164.452 182.424 164.793 182.505 165.154C182.585 165.515 182.598 165.89 182.54 166.256C182.483 166.623 182.358 166.973 182.172 167.288C181.985 167.603 181.742 167.876 181.455 168.091C181.168 168.306 180.844 168.458 180.501 168.54C180.159 168.622 179.804 168.631 179.457 168.568V168.568Z" fill="black"/>
<path opacity="0.25" d="M188.62 147.068C188.62 148.622 191.279 153.121 191.279 153.121C191.279 153.121 193.942 148.622 193.942 147.071C193.942 146.326 193.662 145.611 193.163 145.084C192.664 144.557 191.987 144.261 191.281 144.261C190.575 144.261 189.899 144.557 189.4 145.084C188.901 145.611 188.62 146.326 188.62 147.071V147.068Z" fill="black"/>
<path opacity="0.25" d="M177.846 154.009C178.287 155.491 182.099 158.946 182.099 158.946C182.099 158.946 183.364 153.81 182.925 152.328C182.714 151.617 182.244 151.024 181.619 150.678C180.993 150.333 180.263 150.264 179.59 150.487C178.916 150.71 178.354 151.206 178.027 151.867C177.7 152.527 177.635 153.298 177.846 154.009V154.009Z" fill="black"/>
<path opacity="0.25" d="M168.252 162.271C168.448 163.81 171.653 167.897 171.653 167.897C171.653 167.897 173.723 163.061 173.527 161.523C173.433 160.784 173.065 160.115 172.504 159.663C171.943 159.211 171.234 159.012 170.535 159.112C169.835 159.211 169.202 159.599 168.774 160.192C168.345 160.785 168.158 161.533 168.252 162.271Z" fill="black"/>
<path d="M168.342 173.007C168.342 173.007 169.549 159.865 176.74 152.878C179.773 149.966 181.83 146.093 182.602 141.842C182.955 139.82 183.13 137.767 183.126 135.711" stroke="#535461" stroke-width="2" stroke-miterlimit="10"/>
<path d="M187.632 131.288C187.082 132.728 183.021 135.851 183.021 135.851C183.021 135.851 182.148 130.625 182.697 129.187C182.822 128.836 183.011 128.514 183.255 128.242C183.499 127.969 183.792 127.751 184.117 127.6C184.442 127.448 184.792 127.367 185.148 127.361C185.503 127.356 185.855 127.425 186.185 127.565C186.514 127.705 186.813 127.914 187.065 128.178C187.317 128.442 187.517 128.757 187.651 129.104C187.786 129.451 187.854 129.823 187.851 130.198C187.847 130.573 187.773 130.943 187.632 131.288V131.288Z" fill="#8F8F8F"/>
<path d="M188.669 140.997C187.467 141.891 182.45 142.181 182.45 142.181C182.45 142.181 184.412 137.294 185.606 136.4C185.892 136.188 186.215 136.037 186.556 135.956C186.897 135.875 187.249 135.866 187.594 135.93C187.938 135.993 188.267 136.127 188.562 136.325C188.858 136.522 189.113 136.779 189.314 137.081C189.515 137.383 189.658 137.724 189.735 138.084C189.811 138.444 189.82 138.817 189.76 139.18C189.7 139.544 189.573 139.892 189.386 140.203C189.199 140.515 188.955 140.785 188.669 140.997Z" fill="#8F8F8F"/>
<path d="M183.291 154.548C181.819 154.678 177.355 152.253 177.355 152.253C177.355 152.253 181.38 149.078 182.835 148.946C183.538 148.883 184.236 149.119 184.776 149.6C185.315 150.081 185.651 150.768 185.71 151.511C185.769 152.254 185.547 152.991 185.091 153.561C184.636 154.13 183.984 154.486 183.281 154.548H183.291Z" fill="#8F8F8F"/>
<path d="M177.034 163.833C175.612 164.222 170.819 162.631 170.819 162.631C170.819 162.631 174.275 158.78 175.698 158.392C176.038 158.29 176.395 158.262 176.746 158.308C177.097 158.354 177.436 158.474 177.743 158.66C178.05 158.847 178.318 159.095 178.533 159.393C178.748 159.69 178.904 160.029 178.993 160.391C179.082 160.753 179.102 161.13 179.051 161.5C179 161.869 178.88 162.225 178.698 162.545C178.515 162.865 178.274 163.144 177.989 163.365C177.703 163.585 177.378 163.744 177.034 163.83V163.833Z" fill="#8F8F8F"/>
<path d="M177.162 140.254C177.755 141.673 181.915 144.657 181.915 144.657C181.915 144.657 182.624 139.405 182.028 137.985C181.733 137.318 181.203 136.8 180.551 136.541C179.898 136.282 179.176 136.304 178.539 136.602C177.901 136.9 177.4 137.45 177.143 138.134C176.885 138.818 176.892 139.581 177.162 140.259V140.254Z" fill="#8F8F8F"/>
<path d="M169.976 151.212C170.945 152.378 175.756 153.906 175.756 153.906C175.756 153.906 174.945 148.669 173.973 147.503C173.745 147.219 173.465 146.985 173.15 146.816C172.835 146.647 172.491 146.546 172.139 146.519C171.787 146.492 171.433 146.539 171.098 146.658C170.763 146.776 170.454 146.964 170.188 147.211C169.923 147.457 169.707 147.756 169.552 148.092C169.397 148.427 169.307 148.792 169.288 149.164C169.268 149.537 169.319 149.91 169.437 150.261C169.555 150.613 169.738 150.936 169.976 151.212V151.212Z" fill="#8F8F8F"/>
<path d="M164.374 162.872C165.144 164.196 169.642 166.558 169.642 166.558C169.642 166.558 169.679 161.253 168.906 159.93C168.724 159.616 168.484 159.342 168.201 159.126C167.918 158.909 167.597 158.753 167.257 158.668C166.917 158.582 166.565 158.568 166.22 158.626C165.875 158.684 165.544 158.813 165.246 159.007C164.948 159.2 164.689 159.453 164.484 159.752C164.279 160.051 164.132 160.389 164.051 160.748C163.969 161.107 163.956 161.479 164.011 161.844C164.066 162.208 164.189 162.558 164.372 162.872H164.374Z" fill="#8F8F8F"/>
<path opacity="0.1" d="M91.768 215.997C107.871 215.997 120.924 213.686 120.924 210.836C120.924 207.985 107.871 205.674 91.768 205.674C75.6655 205.674 62.6118 207.985 62.6118 210.836C62.6118 213.686 75.6655 215.997 91.768 215.997Z" fill="#8F8F8F"/>
<path opacity="0.1" d="M149.156 176.374C165.258 176.374 178.312 174.063 178.312 171.212C178.312 168.361 165.258 166.05 149.156 166.05C133.053 166.05 120 168.361 120 171.212C120 174.063 133.053 176.374 149.156 176.374Z" fill="#8F8F8F"/>
<path d="M151.091 103.088L151.064 104.096L149.406 165.871H146.62L147.986 104.096L148.013 102.933L151.091 103.088Z" fill="#B77B7F"/>
<path d="M167.221 155.421L165.134 155.416L134.124 155.346L132.471 155.343L133.351 152.479H167.001L167.221 155.421Z" fill="#DDA2A6"/>
<path opacity="0.1" d="M151.091 103.088L151.064 104.096H147.986L148.013 102.933L151.091 103.088Z" fill="black"/>
<path d="M152.266 101.578H147.098V103.632H152.266V101.578Z" fill="#B77B7F"/>
<path opacity="0.1" d="M134.399 152.479L134.124 155.346L132.471 155.343L133.351 152.479H134.399Z" fill="black"/>
<path d="M138.85 101.539L138.764 102.43L131.885 174.079L128.733 173.921L135.983 102.43L136.064 101.617L138.85 101.539Z" fill="#DDA2A6"/>
<path opacity="0.1" d="M167.221 155.421L165.134 155.416L164.852 152.479H167.001L167.221 155.421Z" fill="black"/>
<path d="M170.52 173.921L167.366 174.079L160.489 102.43L160.403 101.539L163.187 101.617L163.268 102.43L170.52 173.921Z" fill="#DDA2A6"/>
<path d="M183.933 30.8982H114.437V101.267H183.933V30.8982Z" fill="white"/>
<path d="M150.541 7.36323V24.356H147.831V7.36323C147.824 7.1702 147.853 6.97749 147.918 6.79672C147.982 6.61595 148.081 6.45085 148.207 6.31135C148.334 6.17186 148.486 6.06085 148.654 5.98502C148.822 5.90919 149.003 5.87009 149.186 5.87009C149.369 5.87009 149.55 5.90919 149.719 5.98502C149.887 6.06085 150.039 6.17186 150.166 6.31135C150.292 6.45085 150.391 6.61595 150.455 6.79672C150.52 6.97749 150.549 7.1702 150.541 7.36323V7.36323Z" fill="#DDA2A6"/>
<path opacity="0.1" d="M150.542 22.8098H147.829V24.356H150.542V22.8098Z" fill="black"/>
<path d="M151.606 23.9701V29.5799H146.782V23.9701C146.781 23.8785 146.798 23.7877 146.831 23.7031C146.864 23.6184 146.913 23.5414 146.974 23.4767C147.036 23.4119 147.108 23.3606 147.189 23.3257C147.269 23.2908 147.355 23.273 147.441 23.2734H150.951C151.125 23.2747 151.292 23.3487 151.414 23.4793C151.537 23.6098 151.606 23.7862 151.606 23.9701Z" fill="#DDA2A6"/>
<path opacity="0.1" d="M149.185 27.9172C149.751 27.9172 150.21 27.4325 150.21 26.8346C150.21 26.2367 149.751 25.752 149.185 25.752C148.619 25.752 148.16 26.2367 148.16 26.8346C148.16 27.4325 148.619 27.9172 149.185 27.9172Z" fill="black"/>
<path d="M149.185 27.684C149.751 27.684 150.21 27.1993 150.21 26.6014C150.21 26.0035 149.751 25.5188 149.185 25.5188C148.619 25.5188 148.16 26.0035 148.16 26.6014C148.16 27.1993 148.619 27.684 149.185 27.684Z" fill="#B77B7F"/>
<path opacity="0.1" d="M151.606 28.8858H146.767V29.5825H151.606V28.8858Z" fill="black"/>
<path opacity="0.1" d="M153.585 29.8156H144.788V31.3644H153.585V29.8156Z" fill="black"/>
<path d="M153.585 29.3494H144.788V30.8982H153.585V29.3494Z" fill="#DDA2A6"/>
<path opacity="0.1" d="M131.389 99.4544H168.337C168.76 99.4544 169.166 99.6318 169.465 99.9475C169.764 100.263 169.932 100.691 169.932 101.138V101.506H129.795V101.138C129.795 100.691 129.963 100.263 130.262 99.9475C130.561 99.6318 130.967 99.4544 131.389 99.4544V99.4544Z" fill="black"/>
<path opacity="0.1" d="M136.064 101.617L138.85 101.539L138.764 102.43H135.983L136.064 101.617Z" fill="black"/>
<path opacity="0.1" d="M152.266 101.578H147.098V102.43H152.266V101.578Z" fill="black"/>
<path opacity="0.1" d="M163.268 102.43H160.489L160.403 101.539L163.187 101.617L163.268 102.43Z" fill="black"/>
<path d="M131.389 99.9128H168.337C168.76 99.9128 169.166 100.09 169.465 100.406C169.764 100.722 169.932 101.15 169.932 101.596V101.964H129.795V101.596C129.795 101.15 129.963 100.722 130.262 100.406C130.561 100.09 130.967 99.9128 131.389 99.9128V99.9128Z" fill="#DDA2A6"/>
<path d="M123.289 67.2431C122.732 66.9323 116.667 62.0943 116.667 62.0943L106.878 55.5391C106.878 55.5391 106.827 55.3837 106.734 55.1169C109.419 51.8976 108.833 47.2253 106.101 43.9413C102.79 39.9579 87.8292 31.3825 83.3213 38.7173C82.691 39.7533 82.669 40.9291 82.5046 42.0687C82.1196 44.7286 80.8786 47.3056 78.9312 49.476C77.4303 51.1517 75.4608 52.6953 74.5975 54.5912C74.5975 54.5679 74.5804 54.5446 74.573 54.5187C74.3646 54.925 74.2134 55.3612 74.1242 55.8136C73.695 58.1265 75.1665 60.3435 75.9489 62.5941C76.2115 63.3563 76.4021 64.144 76.5179 64.9458C76.5375 64.7852 76.5547 64.6273 76.5719 64.4667C76.7625 65.6083 76.8275 66.7694 76.7656 67.9269C71.3331 69.0949 71.3307 78.9083 71.3307 78.9083C71.3307 78.9083 70.6611 82.8088 70.774 84.2151C70.8868 85.6215 70.8843 88.6621 70.8843 89.395C70.8843 90.128 70.2148 94.6993 70.1486 95.2484C70.1492 95.2561 70.1492 95.2639 70.1486 95.2717C70.0505 95.8725 69.0326 98.7681 71.4926 99.4156C71.6642 99.4622 71.8457 99.5011 72.0346 99.5373C72.14 101.881 72.3313 106.789 72.1621 107.882C72.1621 107.882 73.0573 114.476 73.8004 116.152C74.2704 117.134 74.8202 118.072 75.4437 118.954C75.3897 119.356 75.2614 119.742 75.066 120.091C74.6858 120.669 74.882 121.143 75.5172 121.347C75.4952 121.547 75.4706 121.772 75.4437 122.026C75.1714 124.569 74.7643 129.625 75.4559 132.186C76.4051 135.698 76.4615 136.869 76.4615 136.869C76.4615 136.869 76.4615 137.921 76.8539 138.506C77.2463 139.091 77.9698 144.535 77.9698 145.413C77.9698 146.291 79.8681 154.191 79.3089 156.063C78.7497 157.936 79.1986 160.57 79.1986 160.57C79.1986 160.57 78.8626 165.193 78.4628 166.187C78.063 167.182 77.9036 183.216 78.5167 187.371C79.1299 191.525 79.5223 194.977 79.5223 194.977C79.5223 194.977 79.1323 198.782 79.4659 199.308C79.7994 199.833 80.415 202.996 79.9687 203.169C79.5223 203.343 79.2991 204.633 79.2991 204.633C79.5352 205.012 79.7898 205.377 80.0619 205.728C79.8898 205.665 79.7218 205.59 79.5591 205.503C79.7357 205.762 80.0006 206.13 80.3267 206.539L80.0202 210.748C80.0073 210.912 80.0493 211.076 80.1389 211.21C80.2285 211.345 80.3601 211.443 80.5107 211.486C81.49 211.767 82.5232 211.762 83.5002 211.472C84.4772 211.182 85.3613 210.617 86.0584 209.839C88.8494 206.855 89.7986 207.264 90.3014 205.451C90.3553 205.257 90.4019 205.065 90.4412 204.884C90.8017 203.268 89.1707 202.066 87.8733 202.755C88.0524 201.476 88.1922 200.023 88.0573 199.202C87.7777 197.505 87.8341 193.058 87.8341 193.058L87.4441 171.756C87.4441 171.756 88.1676 167.542 89.0064 165.905C89.8452 164.268 89.7422 158.531 89.7422 158.531L90.6913 139.687L91.5841 130.5C91.5841 130.5 92.4768 127.341 93.5927 130.853C93.5927 130.853 92.9796 137.931 93.2592 139.63C93.5388 141.329 93.9287 149.578 93.6491 151.391C93.3695 153.204 92.1432 163.154 92.9134 165.669C93.6835 168.184 94.5419 171.233 94.3702 172.23C94.1985 173.227 93.6344 194.817 93.6344 194.817C93.6344 194.817 95.1428 198.961 94.0268 200.318C92.9109 201.675 93.9704 207.052 93.9704 207.052C93.9704 207.052 94.1053 207.153 94.3359 207.293L94.304 207.741L93.9533 212.581C93.9407 212.746 93.9829 212.91 94.0724 213.045C94.1619 213.18 94.2932 213.278 94.4438 213.322C95.4231 213.603 96.4564 213.599 97.4334 213.309C98.4104 213.019 99.2946 212.454 99.9915 211.675C102.783 208.689 103.732 209.1 104.234 207.285C104.288 207.091 104.335 206.901 104.377 206.718C104.769 204.954 102.783 203.674 101.453 204.827L101.387 204.887C101.318 204.949 101.245 205.007 101.169 205.06C101.133 205.087 101.097 205.113 101.058 205.135C101.338 203.799 101.745 201.509 101.549 200.437C101.269 198.857 101.826 194.06 101.826 194.06C101.826 194.06 103.445 188.324 103.501 186.032L103.947 167.775C103.947 167.775 103.894 160.342 104.117 158.529C104.34 156.716 106.125 141.031 107.911 136.348C109.282 132.764 109.895 123.616 109.532 118.978C109.512 118.75 109.493 118.529 109.468 118.325C111.658 116.618 111.877 113.78 111.877 113.78C111.877 113.78 109.866 109.724 107.93 108.006C105.995 106.289 105.578 103.337 105.647 102.081C105.68 101.315 105.441 100.564 104.978 99.975C104.978 99.975 104.085 96.9318 103.489 96.621C103.44 96.5948 103.396 96.5598 103.359 96.5174C102.954 96.059 103.266 94.7485 103.266 94.7485V94.7071C103.337 94.404 103.756 92.4408 103.631 91.9384C103.482 91.3945 103.705 88.8175 103.705 88.8175C103.705 88.8175 105.12 84.3705 104.897 80.8585C104.673 77.3466 107.8 77.6599 107.8 77.6599L117.456 77.5538H118.555C118.942 77.2063 119.297 76.8194 119.612 76.3986C121.452 76.1681 125.172 75.4352 125.589 73.2907C126.156 70.4443 123.848 67.5565 123.289 67.2431ZM78.5535 99.7109L78.6197 97.9264C78.8478 98.1336 78.9999 98.2657 78.9999 98.2657C79.123 98.7326 79.129 99.2253 79.0171 99.6953C78.9572 99.9161 78.8509 100.12 78.706 100.291C78.5612 100.462 78.3817 100.597 78.1807 100.685C78.1341 100.706 78.089 100.731 78.0458 100.76L77.9526 99.7523L78.5535 99.7109ZM113.576 68.3723C113.167 68.1781 111.788 68.2169 111.08 68.2169C110.371 68.2169 109.221 67.5928 109.221 67.5928C108.975 67.0877 107.619 66.7873 106.412 66.6164C105.495 64.2284 104.205 61.9 104.031 59.4111C104.031 59.3204 104.031 59.2298 104.019 59.1391L104.158 59.3981C104.158 59.3981 109.78 63.1847 110.412 64.3191C110.903 65.1841 113.265 67.1162 114.359 67.9813C114.208 68.1888 113.997 68.3381 113.758 68.406C113.696 68.4132 113.633 68.4015 113.576 68.3723V68.3723Z" fill="url(#paint0_linear)"/>
<path d="M104.293 206.733C104.252 206.914 104.207 207.103 104.154 207.295C103.663 209.108 102.724 208.689 99.9841 211.649C99.3015 212.422 98.4318 212.982 97.4692 213.271C96.5065 213.559 95.4875 213.565 94.5222 213.286C94.3716 213.244 94.2398 213.147 94.1501 213.012C94.0604 212.878 94.0185 212.714 94.0317 212.55L94.3775 207.748L94.5419 205.438C94.5419 205.438 98.9173 206.733 101.144 205.088C101.219 205.035 101.291 204.977 101.36 204.915C101.377 204.899 101.394 204.881 101.409 204.863C101.697 204.612 102.051 204.462 102.423 204.434C102.796 204.406 103.167 204.502 103.485 204.709C103.803 204.915 104.052 205.221 104.197 205.584C104.342 205.947 104.375 206.349 104.293 206.733V206.733Z" fill="#67647E"/>
<path d="M90.5589 204.92C90.5172 205.101 90.4731 205.291 90.4191 205.482C89.9286 207.295 88.9893 206.876 86.2497 209.836C85.5671 210.609 84.6974 211.17 83.7348 211.458C82.7721 211.747 81.7531 211.752 80.7878 211.473C80.6372 211.431 80.5054 211.334 80.4157 211.199C80.326 211.065 80.2841 210.901 80.2973 210.737L80.6431 205.935L80.8075 203.625C80.8075 203.625 85.1829 204.92 87.4098 203.276C87.4845 203.222 87.5565 203.164 87.6256 203.102C87.6428 203.086 87.6592 203.068 87.6747 203.05C87.9621 202.799 88.3168 202.649 88.689 202.621C89.0612 202.593 89.4323 202.689 89.7503 202.896C90.0683 203.102 90.3172 203.408 90.4622 203.771C90.6072 204.134 90.641 204.536 90.5589 204.92V204.92Z" fill="#67647E"/>
<path opacity="0.1" d="M86.0388 205.64L86.2154 208.137C83.7039 210.786 80.7143 206.842 79.8387 205.547C82.1417 206.8 86.0388 205.64 86.0388 205.64Z" fill="black"/>
<path opacity="0.1" d="M100.801 206.655L101.129 206.425C98.8363 210.108 95.4297 208.409 94.3677 207.748L94.5321 205.438C94.5321 205.438 98.9075 206.733 101.134 205.089C100.96 205.99 100.801 206.655 100.801 206.655Z" fill="black"/>
<path d="M107.786 136.926C106.025 141.57 104.266 157.128 104.046 158.941C103.825 160.754 103.881 168.114 103.881 168.114L103.44 186.215C103.383 188.482 101.789 194.172 101.789 194.172C101.789 194.172 101.24 198.932 101.515 200.499C101.789 202.066 100.801 206.197 100.801 206.197L101.129 205.964C98.3802 210.367 94.0366 207.067 94.0366 207.067C94.0366 207.067 92.9918 201.727 94.0931 200.39C95.1943 199.054 93.708 194.933 93.708 194.933C93.708 194.933 94.2574 173.509 94.4217 172.522C94.586 171.536 93.762 168.516 92.9918 166.019C92.2217 163.522 93.4333 153.652 93.708 151.852C93.9827 150.052 93.5976 141.865 93.3229 140.182C93.0483 138.498 93.6516 131.472 93.6516 131.472C92.5528 127.988 91.6724 131.124 91.6724 131.124L90.7919 140.239L89.8575 158.935C89.8575 158.935 89.9678 164.633 89.1438 166.252C88.3197 167.871 87.6035 172.056 87.6035 172.056L87.9886 193.193C87.9886 193.193 87.9346 197.596 88.2093 199.287C88.484 200.978 87.6035 205.327 87.6035 205.327C84.5256 212.985 79.5812 204.682 79.5812 204.682C79.5812 204.682 79.8019 203.405 80.2409 203.231C80.6799 203.058 80.0766 199.922 79.7504 199.398C79.4242 198.875 79.8044 195.102 79.8044 195.102C79.8044 195.102 79.4193 191.678 78.8233 187.554C78.2273 183.431 78.3843 167.524 78.7694 166.537C79.1544 165.55 79.4831 160.963 79.4831 160.963C79.4831 160.963 79.044 158.35 79.5934 156.491C80.1428 154.631 78.2739 146.796 78.2739 145.923C78.2739 145.051 77.5602 139.653 77.1752 139.073C76.7901 138.493 76.7901 137.447 76.7901 137.447C76.7901 137.447 76.7362 136.286 75.8091 132.803C75.1273 130.259 75.5295 125.245 75.7968 122.72C75.8925 121.785 75.9759 121.189 75.9759 121.189C75.9759 121.189 107.509 115.789 108.767 117.009C109.061 117.297 109.257 118.283 109.373 119.69C109.748 124.29 109.13 133.38 107.786 136.926Z" fill="#444053"/>
<path opacity="0.1" d="M95.8516 163.033C95.9987 163.033 99.4814 163.343 100.757 163.072C102.032 162.8 95.8516 163.033 95.8516 163.033Z" fill="black"/>
<path opacity="0.1" d="M96.1091 165.201C96.1091 165.201 100.919 166.091 101.164 165.628C101.409 165.164 96.1091 165.201 96.1091 165.201Z" fill="black"/>
<path opacity="0.1" d="M81.4108 164.271C81.4108 164.271 83.9026 164.387 85.2588 165.048C86.6151 165.708 81.4108 164.271 81.4108 164.271Z" fill="black"/>
<path d="M72.3559 99.1669C72.3559 99.1669 72.7581 107.255 72.5398 108.688C72.5398 108.688 73.4178 115.23 74.1511 116.893C74.8845 118.555 76.4615 120.648 76.4615 120.648L78.6246 104.59L78.1096 99.0892L72.3559 99.1669Z" fill="#EFB7B9"/>
<path d="M95.0814 62.317C99.7572 62.317 103.548 58.3142 103.548 53.3765C103.548 48.4387 99.7572 44.4359 95.0814 44.4359C90.4056 44.4359 86.6151 48.4387 86.6151 53.3765C86.6151 58.3142 90.4056 62.317 95.0814 62.317Z" fill="#EFB7B9"/>
<path d="M90.684 57.5541C90.684 57.5541 88.045 63.0137 85.406 65.5674C82.7671 68.1211 101.24 71.0245 101.679 71.0245C102.118 71.0245 98.3801 59.4137 99.0399 58.0125C99.6996 56.6114 90.684 57.5541 90.684 57.5541Z" fill="#EFB7B9"/>
<path opacity="0.1" d="M109.377 119.69C108.963 120.024 108.505 120.294 108.019 120.493C104.649 121.886 100.982 123.821 98.4905 123.049C95.9987 122.277 90.7208 123.049 90.7208 123.049C90.7208 123.049 80.0888 122.119 77.9674 122.66C77.001 122.907 76.2506 122.896 75.76 122.72C75.8557 121.785 75.9391 121.189 75.9391 121.189C75.9391 121.189 107.509 115.789 108.767 117.009C109.066 117.297 109.257 118.283 109.377 119.69Z" fill="black"/>
<path d="M111.685 114.531C111.685 114.531 111.394 118.403 108.019 119.796C104.644 121.189 100.982 123.124 98.4905 122.352C95.9987 121.58 90.7208 122.352 90.7208 122.352C90.7208 122.352 80.0888 121.422 77.9674 121.964C75.8459 122.505 74.7398 121.811 75.3995 120.803C76.0593 119.796 75.9881 116.468 75.9881 115.074C75.9881 113.681 75.2524 108.03 75.9121 107.022C76.5718 106.015 77.158 102.145 78.4775 101.524C78.6756 101.436 78.8525 101.302 78.9951 101.132C79.1378 100.962 79.2425 100.76 79.3016 100.542C79.4106 100.076 79.4047 99.5884 79.2844 99.1255C79.2844 99.1255 79.0612 98.9313 78.7546 98.6438C77.9772 97.9108 76.6626 96.5511 77.0844 96.1056C77.6706 95.484 77.0844 91.4592 77.0844 91.4592C77.0844 91.4592 75.6914 88.3642 76.2064 87.2039C76.7214 86.0436 71.7329 79.9261 71.7329 79.9261C71.7329 79.9261 71.7329 69.4006 77.7442 68.9344C77.7442 68.9344 81.9969 69.0898 82.5095 67.0774C83.0221 65.065 86.3944 63.9021 86.3944 63.9021L94.093 65.684C94.093 65.684 100.909 67.2379 102.157 66.303C103.405 65.368 104.364 67.541 104.364 67.541C104.364 67.541 108.615 67.7741 109.054 68.7039C109.493 69.6337 107.663 78.6881 107.663 78.6881C107.663 78.6881 104.583 78.3799 104.803 81.8634C105.024 85.3469 103.616 89.7602 103.616 89.7602C103.616 89.7602 103.396 92.3139 103.543 92.8552C103.68 93.3551 103.253 95.3027 103.185 95.6032V95.642C103.185 95.642 102.878 96.937 103.275 97.398C103.312 97.4397 103.355 97.4747 103.403 97.5016C103.992 97.8098 104.875 100.83 104.875 100.83C105.332 101.416 105.567 102.161 105.534 102.92C105.463 104.16 105.902 107.1 107.808 108.804C109.714 110.508 111.685 114.531 111.685 114.531Z" fill="#949494"/>
<path d="M78.9901 96.6029V96.9318L78.8576 100.558C78.8576 100.558 74.3473 100.944 71.8923 100.299C69.4373 99.6539 70.4698 96.7764 70.5679 96.1807C70.5688 96.173 70.5688 96.1651 70.5679 96.1574C70.6391 95.6135 71.3037 91.0863 71.3037 90.3507C71.3037 89.6152 71.3037 86.5953 71.1933 85.2019C71.083 83.8085 71.7329 79.9261 71.7329 79.9261L72.2087 79.3097L77.3738 81.3998L78.9901 96.6029Z" fill="#969696"/>
<path opacity="0.1" d="M78.9779 96.9396L78.8454 100.566C78.8454 100.566 74.3351 100.951 71.8801 100.307C69.4251 99.6616 70.4576 96.7842 70.5557 96.1885L78.9779 96.9396Z" fill="black"/>
<path opacity="0.1" d="M79.3016 100.545C79.4106 100.079 79.4047 99.591 79.2844 99.1281C79.2844 99.1281 79.0612 98.9338 78.7546 98.6464C82.6371 98.074 98.0123 95.8466 103.19 95.6032V95.642C103.19 95.642 102.883 96.937 103.28 97.398L79.3016 100.545Z" fill="black"/>
<path opacity="0.1" d="M103.768 103.337C103.768 103.337 104.722 109.035 101.166 111.039C101.164 111.05 103.182 108.224 103.768 103.337Z" fill="black"/>
<path opacity="0.1" d="M80.4935 111.202C80.4935 111.202 89.0775 109.649 90.7576 110.855C92.4376 112.062 80.4935 111.202 80.4935 111.202Z" fill="black"/>
<path opacity="0.1" d="M100.801 75.9402C100.801 75.9402 99.4814 81.6692 100.47 82.9849C101.458 84.3006 100.801 75.9402 100.801 75.9402Z" fill="black"/>
<path opacity="0.1" d="M75.9489 71.2576C75.9489 71.2576 77.158 73.3865 76.4247 75.5931C75.6914 77.7998 75.9489 71.2576 75.9489 71.2576Z" fill="black"/>
<path opacity="0.1" d="M73.4497 89.9156C73.4497 89.9156 74.9899 90.8817 74.4773 92.3916C73.9648 93.9015 73.4497 89.9156 73.4497 89.9156Z" fill="black"/>
<path opacity="0.1" d="M73.3099 85.5023C73.3099 85.5023 74.7373 86.3156 74.9213 87.5147C75.1052 88.7139 73.3099 85.5023 73.3099 85.5023Z" fill="black"/>
<path opacity="0.1" d="M94.4953 131.795C94.4953 131.795 103.477 132.764 105.272 130.518C105.272 130.531 97.171 132.223 94.4953 131.795Z" fill="black"/>
<path opacity="0.1" d="M78.9901 131.254C78.9901 131.254 88.6312 133.655 90.5368 131.756C90.5368 131.756 82.252 132.414 78.9901 131.254Z" fill="black"/>
<path opacity="0.1" d="M95.1918 134.934C95.1918 134.934 99.2238 134.934 101.093 135.051C102.962 135.167 95.1918 134.934 95.1918 134.934Z" fill="black"/>
<path opacity="0.1" d="M79.6498 136.747C79.6498 136.747 81.6291 139.109 83.8658 138.685C86.1026 138.26 79.6498 136.747 79.6498 136.747Z" fill="black"/>
<path d="M83.5372 40.0511C82.9167 41.069 82.8946 42.2474 82.7327 43.3766C82.355 46.0158 81.1312 48.5721 79.2157 50.7269C77.4572 52.7005 75.0463 54.4902 74.5902 56.9014C74.1585 59.1909 75.6227 61.395 76.3903 63.6353C78.4137 69.5119 75.5883 75.676 74.7643 81.7417C74.5362 83.4174 74.8109 85.5593 76.7656 86.1161C77.3763 86.2923 78.0753 86.2689 78.6246 86.5487C79.3604 86.9216 79.5861 87.696 79.7209 88.3927C80.2129 90.8848 80.3829 93.4358 80.2262 95.9761C80.1379 97.4006 80.0398 99.04 81.3151 100.019C81.8939 100.467 82.6738 100.695 83.4268 100.91C85.4354 101.482 88.0327 101.946 89.3865 100.602C89.9555 100.04 90.1689 99.2472 90.8777 98.8018C91.9397 98.1361 93.4456 98.5868 94.7822 98.6567C97.5266 98.8018 100.048 97.1027 101.129 95.0541C102.211 93.0054 102.111 90.6512 101.718 88.4419C101.326 86.2327 100.624 84.039 100.575 81.7961C100.558 81.0191 100.624 80.2292 101.046 79.5402C101.863 78.2064 103.764 77.6004 105.063 76.5514C107.499 74.5831 107.491 71.3586 106.606 68.6598C105.721 65.9611 104.131 63.3737 103.935 60.5843C103.848 59.91 103.974 59.2241 104.296 58.6341C104.644 58.0669 105.252 57.6421 105.767 57.1734C109.321 54.0032 108.902 48.7974 105.964 45.2336C102.711 41.284 87.9763 32.7759 83.5372 40.0511Z" fill="#E3787D"/>
<g opacity="0.1">
<path opacity="0.1" d="M76.8416 66.075C77.1187 63.7208 77.0672 61.3872 76.28 59.0951C75.8925 57.9711 75.3308 56.8548 74.9213 55.7282C74.7167 56.1355 74.568 56.5715 74.4798 57.0231C74.0481 59.3127 75.5123 61.5167 76.28 63.757C76.5384 64.5085 76.7265 65.2849 76.8416 66.075Z" fill="black"/>
<path opacity="0.1" d="M80.1158 91.4359C80.2721 88.8957 80.103 86.3449 79.613 83.8525C79.4757 83.1558 79.25 82.384 78.5143 82.0111C77.9649 81.7313 77.2659 81.7521 76.6552 81.5785C76.28 81.4835 75.9303 81.2993 75.6328 81.0399C75.3352 80.7804 75.0977 80.4526 74.9384 80.0815C74.8256 80.672 74.7275 81.26 74.6466 81.8505C74.4185 83.5262 74.6932 85.6681 76.6479 86.2249C77.2586 86.3984 77.9575 86.3751 78.5069 86.6549C79.2427 87.0278 79.4683 87.8022 79.6057 88.4989C79.8307 89.6548 79.9879 90.8242 80.0766 92.0005C80.0937 91.8089 80.1035 91.6224 80.1158 91.4359Z" fill="black"/>
<path opacity="0.1" d="M101.022 90.5165C99.9375 92.5729 97.4163 94.2642 94.6718 94.1191C93.3352 94.0466 91.8293 93.6011 90.7698 94.2642C90.061 94.707 89.8452 95.5022 89.2762 96.0642C87.9224 97.398 85.3251 96.9448 83.3164 96.3724C82.5635 96.1548 81.786 95.9295 81.2048 95.4814C80.6508 95.0512 80.277 94.4103 80.1624 93.6944C80.1771 94.4895 80.1624 95.2872 80.1158 96.0823C80.0275 97.5068 79.9294 99.1462 81.2048 100.128C81.786 100.573 82.5635 100.801 83.3164 101.016C85.3251 101.589 87.9224 102.052 89.2762 100.708C89.8452 100.146 90.061 99.3534 90.7698 98.895C91.8293 98.2294 93.3352 98.68 94.6718 98.75C97.4163 98.895 99.9375 97.196 101.022 95.1473C102.061 93.1686 102.015 90.9309 101.652 88.7942C101.515 89.3953 101.303 89.9745 101.022 90.5165Z" fill="black"/>
<path opacity="0.1" d="M105.667 52.6461C105.142 53.1123 104.534 53.5396 104.195 54.1068C103.874 54.6968 103.747 55.3828 103.835 56.0571C103.906 56.9046 104.076 57.7397 104.34 58.5434C104.748 58.0834 105.196 57.6638 105.677 57.2899C108.08 55.148 108.664 52.0737 107.884 49.204C107.472 50.552 106.703 51.7467 105.667 52.6461V52.6461Z" fill="black"/>
<path opacity="0.1" d="M104.953 72.0112C103.656 73.0602 101.752 73.6688 100.938 75.0026C100.514 75.6916 100.448 76.4867 100.465 77.2559C100.495 78.1617 100.6 79.063 100.779 79.9495C100.825 79.8447 100.878 79.7434 100.938 79.6464C101.752 78.3126 103.656 77.7065 104.953 76.6576C107.177 74.8602 107.364 72.0164 106.707 69.4808C106.373 70.4895 105.763 71.3705 104.953 72.0112V72.0112Z" fill="black"/>
</g>
<path d="M118.283 77.5278C118.283 77.5278 124.625 77.1808 125.175 74.3551C125.724 71.5295 123.458 68.6572 122.903 68.3542C122.349 68.0512 116.37 63.2442 116.37 63.2442L106.731 56.7434C106.731 56.7434 102.113 42.7576 101.09 48.1111C100.068 53.4645 104.06 60.574 104.06 60.574C104.06 60.574 109.593 64.3294 110.216 65.4509C110.839 66.5723 114.653 69.5145 114.653 69.5145L118.283 77.5278Z" fill="#EFB7B9"/>
<path d="M121.692 72.9591C120.191 76.9865 118.246 78.5742 118.246 78.5742H117.164L107.656 78.6778L106.56 75.5154L108.1 68.6624L109.051 68.7038C109.051 68.7038 110.189 69.3228 110.883 69.3228C111.577 69.3228 112.939 69.284 113.336 69.4757C113.391 69.5043 113.454 69.5142 113.515 69.5041C113.876 69.4653 114.251 68.8955 114.251 68.8955C114.251 68.8955 123.195 68.9343 121.692 72.9591Z" fill="#8C8C8C"/>
<path opacity="0.1" d="M121.692 72.9591C120.191 76.9865 118.246 78.5742 118.246 78.5742H117.164C117.729 76.9788 118.918 73.7051 119.372 72.9488C119.816 72.234 115.833 70.4547 113.503 69.4938C113.863 69.4549 114.239 68.8851 114.239 68.8851C114.239 68.8851 123.195 68.9344 121.692 72.9591Z" fill="black"/>
<path opacity="0.1" d="M22.2743 199.888C28.2586 199.888 33.1098 198.886 33.1098 197.65C33.1098 196.414 28.2586 195.412 22.2743 195.412C16.29 195.412 11.4388 196.414 11.4388 197.65C11.4388 198.886 16.29 199.888 22.2743 199.888Z" fill="#8F8F8F"/>
<path opacity="0.1" d="M202.897 184.519C207.255 184.519 210.789 183.79 210.789 182.89C210.789 181.99 207.255 181.261 202.897 181.261C198.538 181.261 195.004 181.99 195.004 182.89C195.004 183.79 198.538 184.519 202.897 184.519Z" fill="#8F8F8F"/>
<path opacity="0.1" d="M237.108 191.121C241.466 191.121 245 190.392 245 189.492C245 188.592 241.466 187.863 237.108 187.863C232.749 187.863 229.215 188.592 229.215 189.492C229.215 190.392 232.749 191.121 237.108 191.121Z" fill="#8F8F8F"/>
<path opacity="0.1" d="M184.134 204.718C188.493 204.718 192.027 203.989 192.027 203.089C192.027 202.189 188.493 201.46 184.134 201.46C179.776 201.46 176.242 202.189 176.242 203.089C176.242 203.989 179.776 204.718 184.134 204.718Z" fill="#8F8F8F"/>
<path d="M32.5138 135.533C32.5138 135.533 34.2894 137.985 31.6946 141.684C29.0998 145.382 26.9636 148.506 27.8318 150.813C27.8318 150.813 31.7437 143.942 34.9296 143.846C38.1155 143.75 36.0185 139.666 32.5138 135.533Z" fill="#8F8F8F"/>
<path opacity="0.1" d="M32.5138 135.533C32.6691 135.772 32.7914 136.034 32.8768 136.31C35.9842 140.166 37.6397 143.763 34.6524 143.854C31.8712 143.937 28.5333 149.192 27.7337 150.518C27.7593 150.621 27.7913 150.722 27.8294 150.821C27.8294 150.821 31.7412 143.95 34.9271 143.854C38.113 143.758 36.0185 139.666 32.5138 135.533Z" fill="black"/>
<path d="M35.8125 138.656C35.8125 139.518 35.7218 140.21 35.6089 140.21C35.4961 140.21 35.4029 139.511 35.4029 138.656C35.4029 137.801 35.5182 138.2 35.631 138.2C35.7438 138.2 35.8125 137.783 35.8125 138.656Z" fill="#FFD037"/>
<path d="M36.9456 139.687C36.2294 140.099 35.604 140.35 35.5501 140.244C35.4961 140.137 36.0406 139.726 36.7494 139.306C37.4582 138.887 37.1835 139.195 37.2399 139.306C37.2963 139.418 37.6617 139.272 36.9456 139.687Z" fill="#FFD037"/>
<path d="M23.1425 135.533C23.1425 135.533 21.3668 137.985 23.9617 141.684C26.5565 145.382 28.6927 148.506 27.8318 150.813C27.8318 150.813 23.9077 143.942 20.7194 143.846C17.531 143.75 19.6378 139.666 23.1425 135.533Z" fill="#8F8F8F"/>
<path opacity="0.1" d="M23.1425 135.533C22.9871 135.772 22.8649 136.034 22.7795 136.31C19.6721 140.166 18.0166 143.763 21.0038 143.854C23.7851 143.937 27.1353 149.192 27.9226 150.518C27.8967 150.621 27.8656 150.722 27.8294 150.821C27.8294 150.821 23.9052 143.95 20.7169 143.854C17.5285 143.758 19.6378 139.666 23.1425 135.533Z" fill="black"/>
<path d="M19.8438 138.656C19.8438 139.518 19.9345 140.21 20.0473 140.21C20.1602 140.21 20.2534 139.511 20.2534 138.656C20.2534 137.801 20.1381 138.2 20.0253 138.2C19.9125 138.2 19.8438 137.783 19.8438 138.656Z" fill="#FFD037"/>
<path d="M18.7107 139.687C19.4293 140.099 20.0523 140.35 20.1087 140.244C20.1651 140.137 19.6181 139.726 18.9069 139.306C18.1956 138.887 18.4728 139.195 18.4164 139.306C18.36 139.418 17.9945 139.272 18.7107 139.687Z" fill="#FFD037"/>
<path opacity="0.1" d="M27.8269 169.559C38.0739 169.559 46.3807 168.213 46.3807 166.552C46.3807 164.892 38.0739 163.546 27.8269 163.546C17.58 163.546 9.27319 164.892 9.27319 166.552C9.27319 168.213 17.58 169.559 27.8269 169.559Z" fill="#8F8F8F"/>
<path d="M37.3772 147.511L37.289 148.288L37.1639 149.368L37.1124 149.819L36.9873 150.901L36.9333 151.352L36.8083 152.432L35.3907 164.719C35.2631 165.817 33.566 166.672 31.5156 166.672H24.153C22.1026 166.672 20.4079 165.817 20.2804 164.719L18.8603 152.429L18.7352 151.349L18.6837 150.899L18.5562 149.816L18.5047 149.366L18.3796 148.286L18.2913 147.509C18.2202 146.887 19.1375 146.364 20.2975 146.364H35.3858C36.5311 146.366 37.4508 146.89 37.3772 147.511Z" fill="#65617D"/>
<path d="M37.2865 148.275L37.1639 149.358H18.49L18.3673 148.275H37.2865Z" fill="#9D9CB5"/>
<path d="M37.1099 149.808L36.9873 150.888H18.669L18.5439 149.808H37.1099Z" fill="#9D9CB5"/>
<path d="M36.9333 151.339L36.8083 152.419H18.8456L18.7205 151.339H36.9333Z" fill="#9D9CB5"/>
<path opacity="0.1" d="M44.1439 40.4085C48.4107 40.4085 51.8695 36.7559 51.8695 32.2502C51.8695 27.7444 48.4107 24.0918 44.1439 24.0918C39.8772 24.0918 36.4183 27.7444 36.4183 32.2502C36.4183 36.7559 39.8772 40.4085 44.1439 40.4085Z" fill="#8F8F8F"/>
<path opacity="0.1" d="M27.9569 17.8759C30.5982 17.8759 32.7394 15.6147 32.7394 12.8255C32.7394 10.0362 30.5982 7.77504 27.9569 7.77504C25.3156 7.77504 23.1744 10.0362 23.1744 12.8255C23.1744 15.6147 25.3156 17.8759 27.9569 17.8759Z" fill="#8F8F8F"/>
<path opacity="0.1" d="M2.94309 27.1997C4.56851 27.1997 5.88618 25.8083 5.88618 24.0918C5.88618 22.3753 4.56851 20.9838 2.94309 20.9838C1.31767 20.9838 0 22.3753 0 24.0918C0 25.8083 1.31767 27.1997 2.94309 27.1997Z" fill="#8F8F8F"/>
</g>
<defs>
<linearGradient id="paint0_linear" x1="97.7646" y1="213.519" x2="97.7646" y2="35.8476" gradientUnits="userSpaceOnUse">
<stop stop-color="#808080" stop-opacity="0.25"/>
<stop offset="0.54" stop-color="#808080" stop-opacity="0.12"/>
<stop offset="1" stop-color="#808080" stop-opacity="0.1"/>
</linearGradient>
<clipPath id="clip0">
<rect width="245" height="216" fill="white"/>
</clipPath>
</defs>
</svg>
