<svg width="308" height="237" viewBox="0 0 308 237" fill="none" xmlns="http://www.w3.org/2000/svg">
<g clip-path="url(#clip0)">
<path opacity="0.1" d="M108.041 232.41C137.714 232.41 161.768 227.928 161.768 222.401C161.768 216.873 137.714 212.392 108.041 212.392C78.3691 212.392 54.3151 216.873 54.3151 222.401C54.3151 227.928 78.3691 232.41 108.041 232.41Z" fill="#757575"/>
<path opacity="0.1" d="M178.95 33.4236C159.204 32.7515 140.398 26.481 122.441 19.6224C104.483 12.7638 86.6966 5.1671 67.4241 1.53377C55.0283 -0.803434 40.8508 -1.13646 30.8652 5.39212C21.2518 11.6927 18.146 22.5386 16.4772 32.6105C15.2202 40.1892 14.4819 48.1669 17.9233 55.2625C20.3152 60.189 24.556 64.3293 27.4909 69.0488C37.7023 85.4662 30.4839 105.712 19.4213 121.742C14.2348 129.261 8.20927 136.444 4.20345 144.439C0.197622 152.435 -1.65427 161.628 1.85121 169.807C5.32313 177.907 13.6002 183.98 22.5668 188.255C40.7776 196.941 62.2284 199.425 83.1606 200.835C129.482 203.95 176.048 202.603 222.492 201.249C239.681 200.751 256.943 200.244 273.851 197.631C283.241 196.179 292.934 193.875 299.753 188.312C308.405 181.253 310.55 169.3 304.75 160.449C295.024 145.598 268.139 141.91 261.333 125.976C257.592 117.203 261.434 107.434 266.873 99.3004C278.54 81.8479 298.093 66.5375 299.121 46.5918C299.829 32.8926 290.429 19.1723 275.895 12.6888C260.662 5.89316 239.534 6.74824 228.301 17.9962C216.723 29.5653 196.385 34.0207 178.95 33.4236Z" fill="#757575"/>
<path d="M163.259 108.532L153.915 102.336L158.628 95.4355L133.946 93.5003L125.078 100.245L113.975 94.1243L104.716 95.2194L104.606 92.8192C104.491 90.317 104.236 87.823 103.84 85.3486C103.88 84.5985 103.907 83.7374 103.904 82.8013C103.904 78.856 103.361 73.6265 100.975 70.1402L101.525 65.2858L97.0703 60.1103C97.7856 58.7091 98.6013 57.3596 99.511 56.072C99.6636 55.856 99.8161 55.6459 99.9809 55.4419C105.762 55.0309 110.323 50.3565 110.323 44.641C110.323 44.3769 110.323 44.1129 110.293 43.8519C110.293 43.7469 110.272 43.6389 110.259 43.5339C110.824 43.8339 111.394 44.1339 111.965 44.4339C112.072 44.584 112.194 44.734 112.328 44.911L112.355 44.944L112.526 45.151L112.581 45.214C112.642 45.286 112.706 45.355 112.77 45.427L112.813 45.475C112.975 45.6521 113.145 45.8321 113.329 46.0091C113.35 46.0265 113.371 46.0456 113.39 46.0661L113.618 46.2761L113.682 46.3331C113.878 46.5041 114.085 46.6691 114.293 46.8252L114.36 46.8732L114.622 47.0502L114.708 47.1042C114.808 47.1642 114.912 47.2272 115.013 47.2842L115.049 47.3052C115.168 47.3682 115.29 47.4282 115.412 47.4852L115.473 47.5092C115.577 47.5532 115.679 47.5952 115.778 47.6352L115.873 47.6682C115.98 47.7042 116.083 47.7372 116.193 47.7672L116.26 47.7852C116.395 47.8182 116.529 47.8452 116.666 47.8662H116.681C116.811 47.8868 116.941 47.8998 117.072 47.9052H117.16C117.277 47.9113 117.394 47.9113 117.511 47.9052H117.588C117.734 47.897 117.88 47.8799 118.024 47.8542C118.706 47.766 119.362 47.5348 119.946 47.1762C120.095 47.0784 120.226 46.9579 120.336 46.8192C120.947 46.0331 120.275 45.172 120.275 45.172C120.037 44.614 118.494 44.2209 118.494 44.2209C118.494 44.2209 113.612 42.2167 113.612 40.6206C113.612 39.0245 112.392 30.7437 99.7948 28.8506C99.7948 28.8506 91.6001 28.3975 89.2966 32.7119L89.2478 33.2159C88.5705 33.633 88.0092 34.4701 87.341 34.7161C87.0524 34.7771 86.774 34.8781 86.5142 35.0161V34.9591C86.4371 35.0254 86.3739 35.106 86.3281 35.1961C86.1846 35.477 86.0986 35.7828 86.0749 36.0962C86.0062 36.4791 85.871 36.8475 85.6752 37.1853C85.6206 37.2813 85.5595 37.3735 85.4922 37.4613V37.4613L85.4403 37.5423C85.7945 37.5695 86.1502 37.5129 86.4776 37.3773C86.426 37.7881 86.3236 38.1911 86.1725 38.5774C86.3665 38.5836 86.5581 38.5348 86.7247 38.437C86.8913 38.3391 87.0258 38.1962 87.1122 38.0254V38.0014L87.1519 37.9474C87.2286 37.8085 87.2919 37.6628 87.341 37.5123L87.3075 37.5483C87.3685 37.3533 87.4234 37.1553 87.4905 36.9633C87.5213 36.8551 87.5719 36.7534 87.64 36.6633C87.7214 36.5825 87.821 36.5217 87.9307 36.4858C88.0404 36.4498 88.1571 36.4397 88.2715 36.4562L88.1464 39.0575H88.2014C88.1279 39.2467 88.0381 39.4294 87.9329 39.6035C87.4997 40.2936 86.7125 40.7646 86.4227 41.5207C86.2977 41.8853 86.25 42.2713 86.2824 42.6548C86.2824 42.8798 86.3098 43.1078 86.3281 43.3328V43.3148C86.3708 43.9149 86.383 44.4849 86.0535 44.968C85.8278 45.298 85.4647 45.547 85.3396 45.9221C85.305 46.0266 85.2895 46.1363 85.2939 46.2461C85.3183 46.5749 85.3881 46.8989 85.5013 47.2092C85.5026 47.2033 85.5026 47.1971 85.5013 47.1912C85.5774 47.4195 85.5952 47.6626 85.5532 47.8992C85.4159 48.4993 84.6745 49.0003 84.7111 49.5734C84.7091 49.6488 84.7204 49.7239 84.7447 49.7954C84.8873 50.0753 85.1343 50.2903 85.4342 50.3955C85.9046 50.6585 86.4448 50.7756 86.9841 50.7315C87.1862 50.6956 87.3816 50.6298 87.5637 50.5365C87.3502 51.0195 87.1305 51.4966 86.9078 51.9496C86.8742 52.0216 86.8376 52.0936 86.801 52.1656C86.801 52.1656 84.9155 50.9265 83.8447 53.4527C83.5321 53.9777 83.3085 54.5492 83.1826 55.1449C83.129 55.3832 83.0534 55.6161 82.9569 55.841C82.4815 56.6324 81.7699 57.2609 80.9189 57.6411C78.7344 58.6252 69.9113 69.4472 69.7557 72.2494C69.6793 73.3433 69.4912 74.4268 69.1943 75.4837C68.4997 77.9725 68.3213 80.5733 68.6695 83.1314C68.7786 83.9581 68.9592 84.7741 69.2095 85.5706C70.1462 88.3698 70.7716 93.5933 70.7716 93.5933L71.7845 102.66C71.7469 103.911 71.802 105.164 71.9492 106.407C70.915 107.569 66.7627 112.408 68.3492 113.725C69.5696 114.763 71.7052 114.592 72.9042 114.379C71.8943 116.836 70.3048 121.109 70.0943 124.043C69.7892 128.384 70.616 134.136 71.9248 136.344C73.2337 138.552 77.5965 144.217 77.5965 144.217C77.5965 144.217 77.392 151.987 78.9511 154.811C80.5101 157.634 81.1385 163.491 81.1385 163.491C81.1385 163.491 82.5938 168.435 81.8647 170.253C81.1355 172.071 83.2162 173.583 81.0318 174.793C78.8473 176.002 76.0527 203.253 76.0527 203.253C76.0527 203.253 74.9269 221.114 76.0527 222.023C76.1129 222.066 76.1773 222.103 76.2449 222.134V228.134C76.2449 228.134 75.4639 229.394 78.6399 229.649C80.8151 229.82 86.981 230.207 90.639 230.432L93.4733 230.606C93.4733 230.606 100.185 231.921 103.151 230.606C106.116 229.292 111.373 229.322 110.592 225.851C110.488 225.379 110.35 224.914 110.177 224.462C109.32 222.308 107.864 222.062 105.183 221.462C105.027 221.429 104.878 221.399 104.74 221.375C101.915 220.892 100.988 222.185 99.4042 220.502C98.0283 219.046 93.6472 217.417 92.1553 216.901C92.1919 216.793 92.2377 216.688 92.2743 216.577C91.8518 216.507 91.4589 216.318 91.1424 216.034L95.1849 216.286L97.592 216.433C97.592 216.433 103.297 217.552 105.829 216.433C108.362 215.314 112.816 215.344 112.151 212.395C112.063 211.993 111.946 211.598 111.8 211.213C111.071 209.383 109.832 209.182 107.553 208.674C107.422 208.647 107.3 208.62 107.178 208.599C104.777 208.188 103.99 209.287 102.644 207.858C101.491 206.64 97.8513 205.275 96.5425 204.81C96.5425 204.144 95.6272 203.196 95.0506 202.245C94.3733 201.135 95.6242 197.249 95.6242 197.249L96.3381 181.129C96.61 181.01 96.8975 180.929 97.1923 180.889C97.1923 180.889 100.42 177.859 99.691 174.63C99.5425 173.654 99.465 172.668 99.4592 171.681C100.521 170.712 101.982 169.281 102.397 168.399C103.074 166.962 102.397 159.998 102.397 159.998V133.371L107.797 133.908L112.697 134.403L114.189 134.553L119.089 135.039L130.349 136.158L140.497 134.268L144.887 133.452L153.915 131.772V110.05L163.259 108.532ZM88.9366 36.5522L88.3081 36.4862C88.5156 36.4952 88.7353 36.5342 88.9366 36.5522Z" fill="url(#paint0_linear)"/>
<path d="M141.357 122.636C138.306 126.929 127.338 124.655 127.338 124.655L118.838 116.833L117.694 115.774L119.613 111.766C119.613 111.766 120.224 111.931 121.27 112.225C126.765 113.794 143.932 119.027 141.357 122.636Z" fill="#EFB7B9"/>
<path opacity="0.1" d="M121.264 112.225C120.889 113.509 119.861 115.432 118.838 116.833L117.694 115.774L119.613 111.766C119.613 111.766 120.23 111.931 121.264 112.225Z" fill="black"/>
<path d="M92.1126 67.0229C92.1126 67.0229 84.2779 70.4402 84.6623 78.832C84.9389 84.2383 85.5379 89.6241 86.4562 94.9614C86.4562 94.9614 84.8545 107.59 91.5238 110.845C98.193 114.1 104.365 116.776 104.365 116.776C104.365 116.776 114.799 117.88 116.096 118.336C117.392 118.793 121.444 111.82 120.696 110.734C119.949 109.648 110.372 107.371 109.152 105.558C107.931 103.746 105.109 102.627 105.109 102.627C105.109 102.627 102.196 100.893 101.997 99.3268C101.799 97.7607 102.568 96.5936 102.763 95.9065C102.959 95.2194 103.453 88.5859 103.453 88.5859C103.453 88.5859 106.742 64.9738 92.1126 67.0229Z" fill="#DCE6F2"/>
<path opacity="0.1" d="M97.2839 94.6164C97.2839 94.6164 86.5356 96.3865 87.5759 100.086C87.5759 100.086 91.478 96.0925 97.2839 94.6164Z" fill="black"/>
<path opacity="0.1" d="M97.3662 96.1135C97.3662 96.1135 91.4567 100.857 92.613 101.1C93.7692 101.343 97.3662 96.1135 97.3662 96.1135Z" fill="black"/>
<path opacity="0.1" d="M100.207 97.7667C100.207 97.7667 98.6232 100.956 99.5964 100.74C100.57 100.524 100.207 97.7667 100.207 97.7667Z" fill="black"/>
<path opacity="0.1" d="M121.661 112.564L121.008 112.381C121.194 111.781 121.246 111.295 121.093 111.07C120.346 109.984 110.775 107.71 109.558 105.894C108.34 104.079 105.515 102.963 105.515 102.963C105.515 102.963 102.602 101.229 102.403 99.6628C102.205 98.0967 102.974 96.9296 103.169 96.2425C103.364 95.5555 103.859 88.9189 103.859 88.9189C103.859 88.9189 107.138 65.3098 92.5092 67.359C92.5092 67.359 84.6745 70.7793 85.0559 79.171C85.3326 84.5775 85.9326 89.9633 86.8529 95.3005C86.8529 95.3005 85.2511 107.929 91.9204 111.184C98.5897 114.439 104.762 117.115 104.762 117.115C104.762 117.115 115.193 118.216 116.492 118.676C116.983 118.85 117.871 117.952 118.741 116.719L119.235 117.172L127.735 124.991C127.735 124.991 138.703 127.268 141.754 122.975C144.332 119.363 127.167 114.13 121.661 112.564Z" fill="black"/>
<path d="M87.6034 35.5261C87.3047 35.5836 87.0187 35.6922 86.7583 35.8472C86.4532 36.0962 86.4532 36.5222 86.3769 36.8943C86.2873 37.4118 86.0786 37.9023 85.7667 38.3284C86.1139 38.3534 86.4622 38.2969 86.7827 38.1634C86.7305 38.574 86.628 38.977 86.4776 39.3635C86.6677 39.3682 86.8552 39.319 87.0175 39.2216C87.1798 39.1242 87.3102 38.9828 87.3929 38.8144C87.5543 38.4764 87.682 38.1237 87.7742 37.7613C87.8029 37.653 87.8526 37.5511 87.9207 37.4613C88.2014 37.1343 88.7231 37.2813 89.1563 37.3233C89.5168 37.3532 89.8789 37.2877 90.2051 37.1337C90.5313 36.9797 90.8096 36.7426 91.0113 36.4472C91.4719 35.7602 91.4994 34.002 90.4011 33.816C89.2539 33.63 88.54 35.1841 87.6034 35.5261Z" fill="#965D7B"/>
<g opacity="0.1">
<path opacity="0.1" d="M86.7278 36.2162C86.7552 36.0692 86.7735 35.9162 86.8071 35.7692C86.5173 36.0182 86.502 36.4412 86.4257 36.8163C86.3873 37.0326 86.327 37.2447 86.2457 37.4493C86.486 37.0728 86.6497 36.654 86.7278 36.2162V36.2162Z" fill="black"/>
<path opacity="0.1" d="M86.8254 38.6944C86.9773 38.3084 87.0798 37.9053 87.1305 37.4943C86.825 37.6208 86.4943 37.6772 86.1634 37.6593C86.067 37.8704 85.9495 38.0714 85.8125 38.2594C86.1585 38.2857 86.5058 38.2302 86.8254 38.0974C86.7747 38.5083 86.6722 38.9114 86.5203 39.2975C86.7103 39.3019 86.8976 39.2525 87.0599 39.1551C87.2222 39.0578 87.3526 38.9166 87.4356 38.7484C87.5116 38.6121 87.5729 38.4683 87.6186 38.3194C87.5291 38.4424 87.4095 38.5413 87.2709 38.6068C87.1322 38.6724 86.979 38.7025 86.8254 38.6944V38.6944Z" fill="black"/>
<path opacity="0.1" d="M89.5041 36.6543C89.0709 36.6122 88.5461 36.4652 88.2654 36.7923C88.1986 36.8828 88.149 36.9844 88.119 37.0923C88.0915 37.1703 88.0671 37.2513 88.0458 37.3323C88.3356 37.1073 88.8054 37.2273 89.199 37.2663C89.5594 37.2952 89.9212 37.2294 90.2472 37.0754C90.5731 36.9214 90.8516 36.685 91.0539 36.3902C91.1464 36.2445 91.2154 36.0856 91.2584 35.9192C91.0494 36.1735 90.7802 36.3735 90.4743 36.5017C90.1685 36.6298 89.8353 36.6822 89.5041 36.6543Z" fill="black"/>
</g>
<path d="M96.7866 60.3054L101.439 65.8078L100.832 71.3613L95.2093 62.7056L96.7866 60.3054Z" fill="#DCE6F2"/>
<path opacity="0.1" d="M101.436 65.8078L100.866 71.0313L100.829 71.3613L95.7554 63.5486L95.2093 62.7056L95.3679 62.4625L96.7835 60.3054L97.0978 60.6774L101.436 65.8078Z" fill="black"/>
<path d="M103.852 52.8557C102.278 53.2997 100.774 54.8238 99.4653 56.675C98.5806 57.9523 97.7895 59.2897 97.0978 60.6774C96.6676 61.5234 96.2893 62.3365 95.975 63.0446L95.7554 63.5486C95.2245 64.7817 94.9286 65.6068 94.9286 65.6068C94.9286 65.6068 82.8775 56.696 84.7843 56.096C85.425 55.8949 86.2671 54.5448 87.1 52.8437L87.2037 52.6277C87.7315 51.5356 88.2502 50.3174 88.7108 49.1713C89.6536 46.8161 90.3522 44.77 90.3522 44.77C90.3522 44.77 108.658 51.5056 103.852 52.8557Z" fill="#EFB7B9"/>
<path d="M111.062 44.2689C111.062 44.2689 113.844 49.2194 117.581 48.5443C121.319 47.8692 119.781 45.8861 119.781 45.8861L111.062 44.2689Z" fill="#444053"/>
<path d="M105.671 215.629C103.206 216.736 97.6317 215.629 97.6317 215.629L95.2825 215.485C92.2316 215.293 87.1244 214.969 85.3183 214.825C82.6823 214.612 83.3291 213.55 83.3291 213.55V207.132L96.1184 203.946C96.1184 203.946 101.174 205.647 102.559 207.132C103.874 208.548 104.643 207.459 106.989 207.867C107.105 207.888 107.227 207.912 107.355 207.942C109.582 208.443 110.79 208.641 111.504 210.457C111.648 210.838 111.763 211.229 111.849 211.627C112.508 214.549 108.133 214.528 105.671 215.629Z" fill="#A36468"/>
<path opacity="0.1" d="M111.504 210.457C111.046 210.738 110.564 210.981 110.064 211.183C108.386 211.936 106.79 212.854 105.094 213.565C103.398 214.276 101.57 214.783 99.7337 214.648C98.7727 214.579 97.7903 214.348 96.872 214.618C96.3041 214.834 95.7692 215.125 95.2825 215.485C92.2316 215.293 87.1244 214.969 85.3183 214.825C82.6823 214.612 83.3291 213.55 83.3291 213.55V212.8C83.4236 212.8 83.5304 212.773 83.6525 212.764C84.2838 212.754 84.9126 212.846 85.5135 213.037C86.8376 213.391 88.1556 213.739 89.4797 214.087C89.5886 213.683 89.78 213.305 90.0422 212.976C90.3045 212.647 90.6321 212.373 91.0051 212.173C91.7609 211.778 92.6091 211.587 93.4641 211.618C95.5174 211.645 97.4608 212.602 99.511 212.698C100.084 212.75 100.661 212.655 101.186 212.422C101.467 212.284 101.714 212.083 101.988 211.93C102.428 211.721 102.892 211.567 103.37 211.471C104.715 211.142 106.035 210.723 107.321 210.217C107.687 210.076 108.115 209.821 108.066 209.437C108.002 208.927 107.187 208.866 106.974 208.398C106.936 208.314 106.918 208.222 106.923 208.13C106.927 208.038 106.953 207.948 106.998 207.867C107.114 207.888 107.236 207.912 107.364 207.942C109.582 208.443 110.79 208.641 111.504 210.457Z" fill="black"/>
<path d="M103.065 229.67C100.167 230.972 93.6076 229.67 93.6076 229.67L90.8465 229.511C87.2708 229.286 81.2484 228.911 79.1219 228.734C76.0191 228.482 76.7819 227.234 76.7819 227.234V219.67L91.8319 215.92C91.8319 215.92 97.7812 217.921 99.4104 219.67C100.957 221.336 101.851 220.054 104.624 220.535C104.762 220.559 104.905 220.589 105.055 220.622C107.675 221.222 109.097 221.447 109.936 223.583C110.106 224.031 110.241 224.492 110.342 224.96C111.098 228.398 105.964 228.371 103.065 229.67Z" fill="#A36468"/>
<path opacity="0.1" d="M109.93 223.583C109.391 223.914 108.824 224.2 108.237 224.438C106.263 225.323 104.383 226.403 102.388 227.24C100.393 228.077 98.2419 228.671 96.0788 228.515C94.9499 228.434 93.7937 228.155 92.7228 228.479C92.0518 228.736 91.4203 229.084 90.8465 229.511C87.2708 229.286 81.2484 228.911 79.1219 228.734C76.0191 228.482 76.7819 227.234 76.7819 227.234V226.352C76.9082 226.332 77.0355 226.318 77.1632 226.31C77.9065 226.297 78.6468 226.405 79.3538 226.631L84.0186 227.867C84.1485 227.39 84.376 226.945 84.6871 226.557C84.9981 226.17 85.3863 225.849 85.8278 225.614C86.717 225.148 87.7161 224.922 88.7231 224.96C91.1394 224.993 93.4245 226.118 95.8378 226.232C96.5098 226.292 97.1864 226.182 97.8025 225.911C98.1351 225.746 98.4127 225.509 98.7483 225.332C99.2643 225.083 99.8109 224.902 100.374 224.792C101.948 224.401 103.493 223.908 105 223.316C105.43 223.148 105.933 222.848 105.875 222.398C105.799 221.798 104.841 221.726 104.588 221.174C104.545 221.074 104.526 220.966 104.531 220.858C104.536 220.75 104.566 220.645 104.618 220.55C104.756 220.574 104.899 220.604 105.048 220.637C107.669 221.213 109.091 221.447 109.93 223.583Z" fill="black"/>
<path d="M96.5059 177.769L95.6913 196.619C95.6913 196.619 94.4709 200.469 95.133 201.57C95.795 202.671 96.9117 203.769 96.5059 204.42C96.1001 205.071 91.2187 212.11 89.6414 209.41C88.0641 206.709 86.5081 195.008 86.5081 195.008L87.9634 180.556L96.5059 177.769Z" fill="#444053"/>
<path d="M100.039 130.803L102.303 133.779V159.665C102.303 159.665 102.965 166.566 102.303 167.991C101.641 169.416 98.2846 172.266 98.2846 172.266L95.4625 158.015L96.0727 142.939L100.039 130.803Z" fill="#444053"/>
<path opacity="0.1" d="M96.5059 177.769L95.6913 196.619C95.6913 196.619 94.4709 200.469 95.133 201.57C95.795 202.671 96.9117 203.769 96.5059 204.42C96.1001 205.071 91.2187 212.11 89.6414 209.41C88.0641 206.709 86.5081 195.008 86.5081 195.008L87.9634 180.556L96.5059 177.769Z" fill="black"/>
<path opacity="0.1" d="M100.039 130.803L102.303 133.779V159.665C102.303 159.665 102.965 166.566 102.303 167.991C101.641 169.416 98.2846 172.266 98.2846 172.266L95.4625 158.015L96.0727 142.939L100.039 130.803Z" fill="black"/>
<path d="M102.303 119.762V133.764L99.7612 144.664C99.7612 144.664 98.9466 170.967 99.6575 174.165C100.368 177.364 97.2168 180.367 97.2168 180.367C97.2168 180.367 95.3862 180.568 95.3862 181.966C95.3862 183.364 92.3353 187.367 92.3353 187.367L92.436 195.167C92.436 195.167 93.7601 209.77 91.7252 212.569C89.6902 215.368 92.436 215.77 92.436 215.77C89.8946 223.97 77.691 222.071 76.5897 221.171C75.4883 220.271 76.5897 202.569 76.5897 202.569C76.5897 202.569 79.3172 175.567 81.4528 174.366C83.5884 173.166 81.5565 171.666 82.2674 169.866C82.9782 168.066 81.5565 163.166 81.5565 163.166C81.5565 163.166 80.9463 157.364 79.4209 154.565C77.8954 151.765 78.0968 144.064 78.0968 144.064C78.0968 144.064 73.8255 138.462 72.5564 136.263C71.2872 134.064 70.4696 128.363 70.7747 124.061C70.9821 121.154 72.535 116.92 73.5205 114.484C73.9933 113.317 74.3351 112.561 74.3351 112.561L74.6249 112.636L91.2889 116.926L102.303 119.762Z" fill="#444053"/>
<path opacity="0.1" d="M103.852 52.8557C102.278 53.2997 100.774 54.8239 99.4653 56.675H99.1236C97.2051 56.6764 95.3203 56.1796 93.6596 55.2351C91.9989 54.2905 90.6213 52.9315 89.6658 51.2955C89.2665 50.6177 88.9452 49.8982 88.7078 49.1504C89.6505 46.7951 90.3492 44.749 90.3492 44.749C90.3492 44.749 108.658 51.5056 103.852 52.8557Z" fill="black"/>
<path d="M110.031 45.355C110.033 46.9966 109.653 48.617 108.918 50.0912C108.184 51.5654 107.115 52.8542 105.794 53.8582C104.474 54.8623 102.936 55.5548 101.301 55.8825C99.6649 56.2102 97.9745 56.1642 96.3596 55.7482C94.7448 55.3322 93.2486 54.5572 91.9863 53.483C90.724 52.4087 89.7293 51.0639 89.0788 49.552C88.4283 48.0402 88.1394 46.4016 88.2343 44.7627C88.3291 43.1237 88.8053 41.528 89.6261 40.0985C89.9568 39.5177 90.3429 38.9692 90.7794 38.4604C91.4988 37.6175 92.3444 36.8871 93.2872 36.2942C94.8796 35.2991 96.7073 34.7272 98.5917 34.6344C100.476 34.5416 102.353 34.9311 104.038 35.7649C105.724 36.5987 107.161 37.8481 108.208 39.3913C109.256 40.9344 109.878 42.7184 110.015 44.5689C110.021 44.833 110.031 45.094 110.031 45.355Z" fill="#EFB7B9"/>
<path opacity="0.1" d="M100.866 71.0313L100.829 71.3613L95.7554 63.5606C95.2245 64.7937 94.9286 65.6188 94.9286 65.6188C94.9286 65.6188 82.8775 56.696 84.7843 56.096C85.425 55.8949 86.2671 54.5448 87.1 52.8437L87.2037 52.6277C88.0885 55.2199 93.2292 60.4013 95.3679 62.4775C95.615 62.7175 95.8194 62.9156 95.9781 63.0596L96.3045 63.3596L96.4754 63.5276C97.2533 64.3167 100.536 67.797 100.866 71.0313Z" fill="black"/>
<path d="M104.658 97.4996L104.103 115.072L104.005 118.201C104.005 118.201 97.4273 117.601 91.2889 116.941C86.3464 116.41 81.6877 115.837 80.9707 115.501C80.0555 115.078 78.0938 114.751 76.5469 114.544C75.351 114.385 74.4113 114.301 74.4113 114.301C74.4113 114.301 74.0605 114.403 73.5205 114.499C72.3428 114.709 70.2743 114.88 69.0692 113.851C67.5285 112.534 71.577 107.749 72.5869 106.599L72.8096 106.35L72.4282 102.885L71.4367 93.8993C71.4367 93.8993 70.8265 88.7239 69.9113 85.9486C69.6666 85.1596 69.49 84.3516 69.3834 83.5334C69.0434 80.9987 69.2176 78.4228 69.896 75.9547C70.1858 74.906 70.3698 73.8317 70.4452 72.7474C70.5977 69.9722 79.2165 59.2463 81.3521 58.2712C82.3128 57.8306 83.0859 57.0725 83.5365 56.129C83.6853 55.8323 83.797 55.519 83.8691 55.1959C84.7844 51.2955 87.1 52.8437 87.1 52.8437C87.6583 55.895 96.3015 63.9717 96.3015 63.9717L96.4723 64.1397C97.3296 65.0038 101.149 69.0601 100.878 72.5224C100.824 73.8111 101.019 75.0981 101.454 76.3148C103.213 81.7587 104.223 87.4091 104.46 93.1163L104.658 97.4996Z" fill="#DCE6F2"/>
<path opacity="0.1" d="M92.4116 76.6328C92.4116 76.6328 90.276 81.7333 88.6742 82.5583C87.0725 83.3834 93.1743 84.2985 92.4116 76.6328Z" fill="black"/>
<path opacity="0.1" d="M94.0133 86.1586C94.0133 86.1586 89.1319 86.7587 89.1319 87.6588C89.1319 88.5588 94.0133 86.1586 94.0133 86.1586Z" fill="black"/>
<path opacity="0.1" d="M99.1236 92.0092C99.1236 92.0092 92.0302 106.86 90.0471 107.31C88.0641 107.761 99.1236 92.0092 99.1236 92.0092Z" fill="black"/>
<path opacity="0.1" d="M96.1672 64.7247L90.3004 67.233L83.2192 56.714C83.368 56.4174 83.4797 56.104 83.5518 55.7809C84.4671 51.8806 86.7827 53.4287 86.7827 53.4287C87.341 56.48 95.9842 64.5567 95.9842 64.5567L96.1672 64.7247Z" fill="black"/>
<path d="M96.4723 64.1247L90.6055 66.6329L83.5243 56.114C83.6731 55.8173 83.7848 55.504 83.8569 55.1809C84.7722 51.2805 87.0878 52.8287 87.0878 52.8287C87.6461 55.8799 96.2893 63.9567 96.2893 63.9567L96.4723 64.1247Z" fill="#DCE6F2"/>
<path opacity="0.1" d="M104.005 118.201C104.005 118.201 97.4273 117.601 91.2889 116.941L102.303 119.777V123.077C101.821 123.506 101.403 123.728 101.131 123.614C99.8619 123.089 89.5041 121.439 89.5041 121.439C89.5041 121.439 83.4877 118.439 76.9954 114.838C76.8378 114.752 76.6851 114.658 76.5378 114.556C75.7808 114.051 75.1285 113.408 74.6157 112.663C73.4167 110.956 72.831 108.763 72.5777 106.611C72.4354 105.379 72.3824 104.137 72.4191 102.897C72.4505 101.491 72.581 100.088 72.8096 98.6998C72.1817 93.3216 71.8761 87.9118 71.8943 82.4983C71.9706 74.0976 79.9792 71.0973 79.9792 71.0973C94.6998 69.8222 90.1356 93.2243 90.1356 93.2243C90.1356 93.2243 89.2844 99.8249 89.0526 100.5C88.8207 101.175 87.9878 102.3 88.1007 103.875C88.2136 105.45 91.0265 107.335 91.0265 107.335C91.0265 107.335 93.7723 108.601 94.9042 110.476C95.7279 111.859 101.079 113.734 104.103 115.072L104.005 118.201Z" fill="black"/>
<path opacity="0.1" d="M108.935 38.6944C108.941 39.1886 108.837 39.678 108.63 40.1286C108.474 40.4962 108.292 40.853 108.087 41.1967C107.766 41.8287 107.31 42.3854 106.751 42.8288C106.046 43.3238 105.155 43.4619 104.31 43.6629C103.465 43.8639 102.586 44.1849 102.104 44.893C101.843 45.3482 101.668 45.8463 101.589 46.3631C101.508 46.8794 101.298 47.368 100.979 47.7852C100.812 47.9889 100.581 48.1325 100.323 48.1933C100.065 48.2541 99.7929 48.2288 99.5507 48.1213C99.2955 47.9521 99.102 47.7072 98.9985 47.4222C98.6507 46.6511 98.5622 45.7961 98.4219 44.965C98.2815 44.1339 98.0832 43.2788 97.5646 42.6098C97.0459 41.9407 96.1276 41.4997 95.313 41.7607C95.0404 41.8639 94.7917 42.0202 94.582 42.2203C94.3723 42.4203 94.2059 42.66 94.0926 42.9248C93.8672 43.455 93.7123 44.0117 93.632 44.581C93.2536 46.6171 92.8072 48.6413 92.2926 50.6535C92.2769 50.736 92.2425 50.8139 92.1919 50.8815C92.1108 50.961 92.0014 51.0062 91.8868 51.0075C91.2034 51.0975 90.5475 50.6265 89.858 50.6775C89.7869 50.6822 89.7165 50.6932 89.6475 50.7105C88.5327 48.8052 88.0405 46.609 88.2375 44.4194C88.4345 42.2297 89.3112 40.1526 90.7489 38.4694L90.8038 38.4544C91.2624 38.2943 91.6792 38.0361 92.0241 37.6983C92.4645 37.2649 92.8724 36.8007 93.2445 36.3092L93.4886 36.0092C94.1898 35.1784 94.9886 34.4321 95.8683 33.786C96.1084 33.5925 96.3838 33.4459 96.6798 33.354C96.9331 33.3054 97.1927 33.2973 97.4486 33.33C98.5022 33.4543 99.5645 33.4935 100.625 33.447C101.363 33.3328 102.108 33.2587 102.855 33.2249C104.786 33.2789 106.434 34.6201 107.654 36.0902C108.31 36.8433 108.896 37.7103 108.935 38.6944Z" fill="black"/>
<path d="M88.2014 40.3836C87.7773 41.0676 87.0115 41.5327 86.7247 42.2827C86.3037 43.3718 87.0146 44.7279 86.3617 45.7C86.1451 46.0271 85.7881 46.2701 85.6661 46.6451C85.4586 47.2782 86.0261 47.9532 85.8796 48.6043C85.7332 49.2553 84.8606 49.8044 85.0925 50.4404C85.2295 50.7178 85.4699 50.9327 85.7637 51.0405C86.226 51.3013 86.7581 51.4175 87.2891 51.3735C88.122 51.2385 88.7414 50.4344 89.5865 50.3744C90.2729 50.3264 90.9289 50.7945 91.6123 50.7075C91.7268 50.7036 91.8357 50.6575 91.9173 50.5785C91.9692 50.5116 92.0037 50.4333 92.018 50.3504C92.5306 48.3403 92.978 46.3161 93.3604 44.2779C93.4383 43.7085 93.5922 43.1516 93.8181 42.6218C93.9322 42.3574 94.0989 42.1183 94.3085 41.9183C94.5181 41.7184 94.7663 41.5618 95.0384 41.4577C95.853 41.1996 96.7683 41.6377 97.29 42.3067C97.8117 42.9758 98.01 43.8309 98.1503 44.6619C98.2907 45.493 98.3791 46.3481 98.7239 47.1192C98.8286 47.4051 99.0231 47.651 99.2792 47.8212C99.7368 48.0822 100.353 47.8752 100.704 47.4852C101.025 47.0678 101.235 46.5778 101.314 46.0601C101.394 45.5442 101.568 45.047 101.83 44.5929C102.312 43.8849 103.193 43.5638 104.036 43.3628C104.878 43.1618 105.765 43.0208 106.476 42.5258C107.035 42.0828 107.491 41.5273 107.813 40.8966C108.264 40.1225 108.685 39.2825 108.648 38.3914C108.609 37.4193 108.023 36.5522 107.398 35.7962C106.177 34.326 104.527 32.9849 102.595 32.9339C101.848 32.9646 101.104 33.0388 100.365 33.1559C99.3051 33.2028 98.2427 33.1627 97.1893 33.0359C96.9331 33.0058 96.6738 33.0149 96.4205 33.0629C96.1241 33.1519 95.8491 33.2989 95.612 33.4949C94.7315 34.14 93.9317 34.8853 93.2292 35.7151C92.7763 36.3057 92.2851 36.8669 91.7587 37.3953C91.4137 37.7335 90.997 37.9927 90.5383 38.1544C90.2332 38.2384 89.9282 38.1784 89.6383 38.2714C88.7383 38.5504 88.6193 39.7055 88.2014 40.3836Z" fill="#965D7B"/>
<path opacity="0.1" d="M117.581 48.5413C115.141 48.9823 113.118 47.0412 111.998 45.625C111.654 45.195 111.341 44.7418 111.062 44.2689L119.439 45.8231L119.778 45.8861C119.778 45.8861 121.319 47.8692 117.581 48.5413Z" fill="black"/>
<g opacity="0.1">
<path opacity="0.1" d="M85.8796 47.7462C85.9138 47.3538 85.8531 46.9591 85.7027 46.5941C85.7027 46.6241 85.6752 46.6541 85.6661 46.6841C85.5349 47.0862 85.7118 47.5032 85.8247 47.9202C85.8489 47.8642 85.8673 47.8059 85.8796 47.7462V47.7462Z" fill="black"/>
<path opacity="0.1" d="M86.6059 42.8348C86.5743 43.2497 86.5825 43.6665 86.6304 44.0799C86.6619 43.665 86.6537 43.2482 86.6059 42.8348Z" fill="black"/>
<path opacity="0.1" d="M107.794 40.0295C107.473 40.6616 107.017 41.2183 106.458 41.6617C105.753 42.1567 104.865 42.2947 104.017 42.4958C103.169 42.6968 102.293 43.0178 101.811 43.7259C101.551 44.1812 101.376 44.6793 101.296 45.196C101.216 45.7136 101.007 46.2035 100.686 46.6211C100.335 47.0112 99.7185 47.2212 99.2609 46.9572C99.0048 46.7869 98.8104 46.5411 98.7056 46.2551C98.3608 45.484 98.2693 44.6319 98.132 43.7979C97.9947 42.9638 97.7903 42.1117 97.2717 41.4427C96.753 40.7736 95.8347 40.3326 95.0201 40.5936C94.7477 40.6973 94.4993 40.8537 94.2897 41.0537C94.08 41.2537 93.9134 41.4931 93.7998 41.7577C93.5739 42.2876 93.42 42.8444 93.3421 43.4138C92.9618 45.452 92.5143 47.4762 91.9997 49.4864C91.9854 49.5693 91.9509 49.6475 91.899 49.7144C91.8174 49.7935 91.7085 49.8395 91.594 49.8434C90.9106 49.9304 90.2546 49.4624 89.5682 49.5104C88.7231 49.5704 88.1037 50.3745 87.2708 50.5065C86.7396 50.5533 86.2066 50.437 85.7454 50.1734C85.5333 50.0837 85.343 49.9508 85.1871 49.7834C85.1157 49.8839 85.0684 49.9991 85.0489 50.1202C85.0293 50.2413 85.038 50.3651 85.0742 50.4825C85.2086 50.7618 85.4499 50.9775 85.7454 51.0825C86.2066 51.346 86.7396 51.4624 87.2708 51.4155C88.1037 51.2835 88.7231 50.4795 89.5682 50.4195C90.2546 50.3715 90.9106 50.8395 91.594 50.7525C91.7085 50.7486 91.8174 50.7025 91.899 50.6235C91.9509 50.5566 91.9854 50.4784 91.9997 50.3955C92.5123 48.3953 92.9597 46.3711 93.3421 44.3229C93.42 43.7535 93.5739 43.1967 93.7998 42.6668C93.9134 42.4022 94.08 42.1628 94.2897 41.9628C94.4993 41.7628 94.7477 41.6063 95.0201 41.5027C95.8347 41.2416 96.75 41.6827 97.2717 42.3517C97.7934 43.0208 97.9917 43.8759 98.132 44.7069C98.2724 45.538 98.3608 46.3931 98.7056 47.1642C98.8104 47.4501 99.0048 47.696 99.2609 47.8662C99.7185 48.1273 100.335 47.9202 100.686 47.5302C101.007 47.1126 101.216 46.6227 101.296 46.1051C101.376 45.5884 101.551 45.0903 101.811 44.6349C102.293 43.9269 103.175 43.6089 104.017 43.4048C104.859 43.2008 105.747 43.0658 106.458 42.5708C107.017 42.1274 107.473 41.5707 107.794 40.9386C108.246 40.1675 108.667 39.3275 108.63 38.4364C108.624 38.3218 108.612 38.2076 108.594 38.0944C108.446 38.7811 108.176 39.4364 107.794 40.0295V40.0295Z" fill="black"/>
</g>
<path opacity="0.1" d="M108.642 40.1196C109.425 41.4875 109.888 43.0093 110 44.575C107.282 43.0748 104.725 41.4277 103.434 40.8546C101.186 39.8555 92.7777 40.0055 89.617 40.0986C89.9476 39.5177 90.3338 38.9692 90.7702 38.4604C91.4924 37.6168 92.3412 36.8864 93.2872 36.2942C94.54 35.5123 95.9418 34.9899 97.407 34.7588C98.8721 34.5278 100.37 34.593 101.808 34.9505C103.247 35.3079 104.596 35.9502 105.774 36.8379C106.952 37.7257 107.933 38.8402 108.658 40.1136L108.642 40.1196Z" fill="black"/>
<path opacity="0.1" d="M118.344 47.2692C116.877 47.7132 114.482 46.8552 111.998 45.625C111.654 45.195 111.341 44.7418 111.062 44.2689L119.439 45.8231C119.995 46.1951 120.135 46.7261 118.344 47.2692Z" fill="black"/>
<path d="M99.7734 29.7177C99.7734 29.7177 91.7648 29.2676 89.5132 33.543L89.1502 37.3323L88.54 37.2663L88.418 39.8435C88.418 39.8435 100.658 39.3185 103.444 40.5546C106.229 41.7907 114.884 48.0193 118.353 46.9692C121.822 45.9191 118.048 44.944 118.048 44.944C118.048 44.944 113.274 42.9548 113.274 41.3947C113.274 39.8345 112.09 31.5928 99.7734 29.7177Z" fill="#444053"/>
<path opacity="0.1" d="M84.3267 170.19C84.3267 170.19 89.437 175.065 91.6489 174.69C91.6489 174.69 85.3945 174.165 84.3267 170.19Z" fill="black"/>
<path opacity="0.1" d="M83.2589 172.449C83.2589 172.449 83.7165 174.957 84.9369 174.711C86.1573 174.465 83.2589 172.449 83.2589 172.449Z" fill="black"/>
<path opacity="0.1" d="M91.2675 214.369C91.2675 214.369 84.0125 219.919 85.2359 220.069C86.4593 220.219 91.2675 214.369 91.2675 214.369Z" fill="black"/>
<path d="M100.972 104.208L124.464 100.449V122.321L102.144 121.172L100.972 104.208Z" fill="#757575"/>
<path opacity="0.05" d="M100.972 104.208L124.464 100.449V122.321L102.144 121.172L100.972 104.208Z" fill="black"/>
<path d="M124.464 100.449L152.636 102.522L151.077 121.556L124.464 122.321V100.449Z" fill="#757575"/>
<path opacity="0.1" d="M124.464 100.449L152.636 102.522L151.077 121.556L124.464 122.321V100.449Z" fill="black"/>
<path d="M133.126 93.7733L124.464 100.449L152.636 102.522L157.24 95.6905L133.126 93.7733Z" fill="#757575"/>
<path d="M92.4665 96.9176L113.615 94.3854L124.464 100.449L100.972 104.208L92.4665 96.9176Z" fill="#757575"/>
<path d="M129.614 106.128V136.032L118.61 134.922L113.823 134.442L112.364 134.292L107.581 133.809L100.972 133.143V104.208L124.461 105.78L129.614 106.128Z" fill="#757575"/>
<path d="M152.636 102.522V131.685L143.816 133.35L139.527 134.16L129.614 136.032V106.128L152.636 102.522Z" fill="#757575"/>
<path opacity="0.05" d="M152.636 102.522V131.685L143.816 133.35L139.527 134.16L129.614 136.032V106.128L152.636 102.522Z" fill="black"/>
<path d="M92.4665 110.503L100.972 104.208L129.614 106.128L125.398 113.113L92.4665 110.503Z" fill="#757575"/>
<path opacity="0.1" d="M92.4665 110.503L100.972 104.208L129.614 106.128L125.398 113.113L92.4665 110.503Z" fill="white"/>
<path d="M152.636 102.522L129.614 106.128L137.107 112.729L161.768 108.661L152.636 102.522Z" fill="#757575"/>
<path opacity="0.1" d="M152.636 102.522L129.614 106.128L137.107 112.729L161.768 108.661L152.636 102.522Z" fill="white"/>
<path opacity="0.1" d="M143.816 133.35L139.527 134.16V127.928L143.545 126.932L143.816 133.35Z" fill="white"/>
<path opacity="0.1" d="M118.61 130.8V134.922L113.823 134.442V130.8H118.61Z" fill="white"/>
<path opacity="0.1" d="M112.364 132.099V134.292L107.581 133.809V132.099H112.364Z" fill="white"/>
<path opacity="0.1" d="M126.734 128.612C123.454 132.738 112.624 129.888 112.624 129.888L104.576 121.631L103.483 120.512L105.619 116.611C105.619 116.611 106.229 116.809 107.248 117.157C112.642 119.012 129.495 125.141 126.734 128.612Z" fill="black"/>
<path d="M126.429 128.012C123.149 132.138 112.319 129.287 112.319 129.287L104.27 121.031L103.178 119.912L105.314 116.011C105.314 116.011 105.924 116.209 106.943 116.557C112.337 118.411 129.19 124.541 126.429 128.012Z" fill="#EFB7B9"/>
<path opacity="0.1" d="M106.931 116.557C106.485 117.817 105.353 119.684 104.258 121.031L103.166 119.912L105.302 116.011C105.302 116.011 105.915 116.209 106.931 116.557Z" fill="black"/>
<path d="M80.2843 69.8972C80.2843 69.8972 72.2757 72.8975 72.1994 81.2982C72.1812 86.7117 72.4868 92.1215 73.1147 97.4997C73.1147 97.4997 70.8265 110.026 77.3097 113.626C83.7928 117.226 89.8183 120.227 89.8183 120.227C89.8183 120.227 100.176 121.877 101.448 122.402C102.721 122.927 107.141 116.176 106.455 115.051C105.768 113.926 96.3381 111.151 95.2184 109.276C94.0987 107.401 91.3407 106.137 91.3407 106.137C91.3407 106.137 88.5278 104.25 88.4149 102.675C88.302 101.1 89.1319 99.9749 89.3668 99.2998C89.6017 98.6248 90.4529 92.0242 90.4529 92.0242C90.4529 92.0242 95.0048 68.6071 80.2843 69.8972Z" fill="#DCE6F2"/>
<path opacity="0.1" d="M83.9454 97.7097C83.9454 97.7097 73.1147 98.9098 73.9537 102.66C73.9537 102.66 78.0693 98.8768 83.9454 97.7097Z" fill="black"/>
<path opacity="0.1" d="M83.9453 99.2098C83.9453 99.2098 77.7978 103.635 78.9266 103.935C80.0555 104.235 83.9453 99.2098 83.9453 99.2098Z" fill="black"/>
<path opacity="0.1" d="M86.6911 101.01C86.6911 101.01 84.9369 104.112 85.9284 103.95C86.92 103.788 86.6911 101.01 86.6911 101.01Z" fill="black"/>
<path d="M199.458 33.72C199.458 33.72 187.865 33.0329 189.22 41.0316C189.22 41.0316 188.948 42.4448 190.251 43.0868C190.251 43.0868 190.272 42.4868 191.441 42.6938C191.857 42.7627 192.28 42.7828 192.701 42.7538C193.271 42.7164 193.813 42.4961 194.244 42.1267V42.1267C194.244 42.1267 197.506 40.8036 198.775 35.5592C198.775 35.5592 199.715 34.4131 199.69 34.119L197.732 34.9441C197.732 34.9441 198.4 36.3332 197.872 37.4883C197.872 37.4883 197.811 34.9951 197.433 35.0521C197.356 35.0521 196.417 35.5352 196.417 35.5352C196.417 35.5352 197.567 37.9534 196.697 39.7145C196.697 39.7145 197.027 36.7323 196.057 35.7092L194.678 36.5012C194.678 36.5012 196.023 39.0005 195.111 41.0407C195.111 41.0407 195.346 37.9114 194.388 36.6933L193.137 37.6504C193.137 37.6504 194.403 40.1166 193.631 41.8087C193.631 41.8087 193.53 38.1664 192.865 37.8904C192.865 37.8904 191.773 38.8385 191.608 39.2285C191.608 39.2285 192.472 41.0287 191.935 41.9617C191.935 41.9617 191.605 39.5345 191.325 39.5225C191.325 39.5225 190.235 41.1307 190.123 42.2228C190.175 41.2046 190.498 40.2178 191.059 39.3605C190.431 39.4773 189.852 39.7725 189.393 40.2096C189.393 40.2096 189.561 39.0725 191.328 38.9735C191.328 38.9735 192.243 37.7524 192.469 37.6774C192.469 37.6774 190.711 37.5333 189.647 37.9984C189.647 37.9984 190.583 36.9273 192.792 37.3983L194.013 36.4082C194.013 36.4082 191.7 36.1082 190.718 36.4412C190.718 36.4412 191.846 35.4932 194.345 36.1832L195.687 35.3941C195.687 35.3941 193.717 34.9741 192.542 35.1271C192.542 35.1271 193.781 34.4701 196.081 35.1811L197.042 34.7581C197.042 34.7581 195.596 34.4791 195.175 34.4341C194.754 34.3891 194.729 34.275 194.729 34.275C195.644 34.1253 196.584 34.2292 197.442 34.5751C197.442 34.5751 199.501 33.846 199.458 33.72Z" fill="#757575"/>
<path opacity="0.1" d="M234.684 73.7256C234.684 73.7256 223.091 73.0385 224.445 81.0372C224.445 81.0372 224.174 82.4503 225.476 83.0924C225.476 83.0924 225.498 82.4923 226.669 82.6993C227.085 82.7682 227.508 82.7883 227.929 82.7593C228.493 82.7191 229.028 82.5002 229.455 82.1353V82.1353C229.455 82.1353 232.719 80.8092 233.988 75.5647C233.988 75.5647 234.925 74.4216 234.888 74.1276L232.93 74.9497C232.93 74.9497 233.598 76.3388 233.073 77.4939C233.073 77.4939 233.009 75.0007 232.634 75.0577C232.557 75.0577 231.615 75.5407 231.615 75.5407C231.615 75.5407 232.768 77.9619 231.898 79.7201C231.898 79.7201 232.228 76.7378 231.255 75.7147L229.891 76.4978C229.891 76.4978 231.236 78.997 230.324 81.0372C230.324 81.0372 230.559 77.9079 229.601 76.6898L228.353 77.6499C228.353 77.6499 229.616 80.1131 228.848 81.8052C228.848 81.8052 228.747 78.1629 228.082 77.8869C228.082 77.8869 226.99 78.835 226.822 79.225C226.822 79.225 227.688 81.0252 227.151 81.9583C227.151 81.9583 226.822 79.5311 226.541 79.5191C226.541 79.5191 225.452 81.1272 225.339 82.2193C225.394 81.201 225.717 80.2144 226.279 79.357C225.65 79.4741 225.07 79.7692 224.61 80.2061C224.61 80.2061 224.781 79.069 226.547 78.97C226.547 78.97 227.447 77.7489 227.688 77.6739C227.688 77.6739 225.931 77.5299 224.866 77.9949C224.866 77.9949 225.803 76.9238 228.009 77.4099L229.229 76.4198C229.229 76.4198 226.913 76.1198 225.934 76.4528C225.934 76.4528 227.063 75.5047 229.561 76.1948L230.904 75.4057C230.904 75.4057 228.93 74.9887 227.755 75.1387C227.755 75.1387 228.997 74.4816 231.297 75.1927L232.258 74.7696C232.258 74.7696 230.812 74.4906 230.388 74.4456C229.964 74.4006 229.943 74.2866 229.943 74.2866C230.859 74.1368 231.799 74.2407 232.658 74.5866C232.658 74.5866 234.721 73.8516 234.684 73.7256Z" fill="#757575"/>
<path opacity="0.1" d="M164.254 66.6239C164.254 66.6239 166.924 55.4959 158.674 55.4569C158.674 55.4569 157.304 54.9529 156.441 56.105C156.441 56.105 157.03 56.228 156.63 57.3261C156.492 57.7144 156.4 58.1171 156.355 58.5262C156.296 59.0839 156.424 59.6453 156.718 60.1253V60.1253C156.718 60.1253 157.49 63.5156 162.515 65.6398C162.515 65.6398 163.504 66.7439 163.803 66.7559L163.314 64.7187C163.314 64.7187 161.807 65.1297 160.739 64.4187C160.739 64.4187 163.25 64.7817 163.253 64.4187C163.253 64.3437 162.948 63.3506 162.948 63.3506C162.948 63.3506 160.328 64.0527 158.711 62.9096C158.711 62.9096 161.643 63.7376 162.835 62.9726L162.286 61.4964C162.286 61.4964 159.54 62.3755 157.661 61.1424C157.661 61.1424 160.758 61.9045 162.143 61.1844L161.395 59.8103C161.395 59.8103 158.711 60.6144 157.145 59.5793C157.145 59.5793 160.807 60.1013 161.203 59.5073C161.203 59.5073 160.44 58.2862 160.077 58.0581C160.077 58.0581 158.137 58.5922 157.283 57.9111C157.283 57.9111 159.769 58.0041 159.827 57.7461C159.827 57.7461 158.402 56.417 157.316 56.117C158.328 56.3436 159.263 56.8254 160.029 57.5151C160.017 56.8863 159.82 56.2743 159.461 55.7539C159.461 55.7539 160.572 56.114 160.376 57.8541C160.376 57.8541 161.444 58.9342 161.478 59.1802C161.478 59.1802 161.92 57.5031 161.636 56.39C161.636 56.39 162.552 57.4821 161.688 59.5373L162.469 60.9024C162.469 60.9024 163.177 58.7122 162.997 57.7041C162.997 57.7041 163.757 58.9582 162.637 61.2624L163.202 62.6995C163.202 62.6995 163.955 60.8574 164.004 59.6993C164.004 59.6993 164.452 61.0134 163.345 63.1226L163.607 64.1247C163.607 64.1247 164.132 62.7715 164.248 62.3695C164.364 61.9675 164.483 61.9645 164.483 61.9645C164.478 62.8772 164.215 63.7707 163.723 64.5447C163.723 64.5447 164.123 66.6389 164.254 66.6239Z" fill="#757575"/>
<path opacity="0.1" d="M138.865 70.4163C138.865 70.4163 129.553 63.5666 126.225 70.9863C126.225 70.9863 125.209 72.0214 125.938 73.2605C125.938 73.2605 126.286 72.7775 127.158 73.5785C127.467 73.8613 127.809 74.107 128.177 74.3106C128.676 74.5835 129.251 74.6888 129.816 74.6106V74.6106C129.816 74.6106 133.281 75.2677 137.272 71.5744C137.272 71.5744 138.697 71.1243 138.831 70.8603L136.729 70.4973C136.729 70.4973 136.509 72.0184 135.426 72.6995C135.426 72.6995 136.766 70.5813 136.418 70.4283C136.348 70.3953 135.298 70.2782 135.298 70.2782C135.298 70.2782 134.908 72.9245 133.199 73.9236C133.199 73.9236 135.142 71.6104 134.901 70.2302L133.306 70.1462C133.306 70.1462 133.034 72.9635 131.13 74.1756C131.13 74.1756 133.074 71.6884 132.961 70.1522L131.381 70.2782C131.381 70.2782 131.06 73.0175 129.471 74.0136C129.471 74.0136 131.42 70.9173 131.021 70.3293C131.021 70.3293 129.578 70.5303 129.221 70.7643C129.221 70.7643 128.943 72.7265 127.967 73.2245C127.967 73.2245 129.05 71.0193 128.83 70.8663C128.83 70.8663 127.021 71.6194 126.31 72.4775C126.925 71.6559 127.747 71.0064 128.696 70.5933C128.106 70.3521 127.457 70.2853 126.829 70.4013C126.829 70.4013 127.604 69.5432 129.135 70.4163C129.135 70.4163 130.569 69.8852 130.813 69.9512C130.813 69.9512 129.425 68.8801 128.275 68.6941C128.275 68.6941 129.66 68.3041 131.231 69.8942L132.815 69.7352C132.815 69.7352 131.054 68.2351 130.044 67.983C130.044 67.983 131.518 67.8 133.217 69.7262L134.779 69.7952C134.779 69.7952 133.367 68.3791 132.302 67.869C132.302 67.869 133.702 67.989 135.228 69.8282L136.268 69.9932C136.268 69.9932 135.216 68.9791 134.886 68.7151C134.557 68.4511 134.602 68.3401 134.602 68.3401C135.451 68.7097 136.179 69.3038 136.704 70.0562C136.704 70.0562 138.825 70.5393 138.865 70.4163Z" fill="#757575"/>
<path opacity="0.1" d="M169.865 6.77761C169.865 6.77761 160.553 -0.074999 157.225 7.34766C157.225 7.34766 156.209 8.38275 156.938 9.62186C156.938 9.62186 157.286 9.13882 158.158 9.93989C158.469 10.2212 158.812 10.4659 159.18 10.669C159.679 10.942 160.254 11.0474 160.819 10.969V10.969C160.819 10.969 164.285 11.626 168.275 7.92971C168.275 7.92971 169.7 7.48267 169.831 7.21565L167.729 6.85862C167.729 6.85862 167.512 8.37975 166.426 9.06081C166.426 9.06081 167.769 6.94262 167.421 6.78961C167.351 6.75661 166.301 6.6396 166.301 6.6396C166.301 6.6396 165.899 9.29183 164.19 10.2849C164.19 10.2849 166.13 7.97171 165.892 6.59159L164.297 6.50758C164.297 6.50758 164.022 9.32483 162.122 10.5339C162.122 10.5339 164.065 8.04672 163.952 6.51059L162.375 6.6366C162.375 6.6366 162.051 9.37884 160.462 10.3749C160.462 10.3749 162.414 7.27865 162.015 6.6906C162.015 6.6906 160.572 6.89162 160.215 7.12564C160.215 7.12564 159.937 9.08781 158.961 9.58586C158.961 9.58586 160.044 7.38066 159.824 7.22465C159.824 7.22465 158.015 7.98071 157.304 8.83879C157.918 8.01633 158.741 7.36665 159.69 6.95462C159.099 6.71162 158.449 6.64484 157.82 6.76261C157.82 6.76261 158.598 5.90453 160.129 6.77761C160.129 6.77761 161.563 6.24356 161.807 6.31257C161.807 6.31257 160.419 5.24147 159.269 5.05246C159.269 5.05246 160.651 4.66542 162.222 6.25256L163.806 6.09355C163.806 6.09355 162.048 4.59341 161.035 4.33839C161.035 4.33839 162.509 4.15838 164.211 6.08455L165.773 6.15055C165.773 6.15055 164.361 4.73443 163.293 4.22738C163.293 4.22738 164.696 4.34739 166.222 6.18656L167.259 6.35157C167.259 6.35157 166.204 5.34948 165.874 5.09146C165.545 4.83344 165.59 4.71943 165.59 4.71943C166.439 5.08863 167.167 5.68284 167.692 6.43558C167.692 6.43558 169.813 6.89162 169.865 6.77761Z" fill="#757575"/>
<path opacity="0.1" d="M205.444 15.4574C205.444 15.4574 201.722 4.62341 194.702 8.88079C194.702 8.88079 193.268 9.18082 193.155 10.5939C193.155 10.5939 193.72 10.3899 193.97 11.53C194.063 11.9356 194.203 12.3292 194.388 12.7031C194.64 13.2063 195.051 13.6158 195.559 13.8702V13.8702C195.559 13.8702 198.037 16.3455 203.455 15.5264C203.455 15.5264 204.886 15.9524 205.148 15.8054L203.623 14.3323C203.623 14.3323 202.567 15.4634 201.28 15.4184C201.28 15.4184 203.608 14.4223 203.415 14.1013C203.376 14.0382 202.579 13.3572 202.579 13.3572C202.579 13.3572 200.731 15.3164 198.747 15.1874C198.747 15.1874 201.679 14.3653 202.277 13.0872L201.014 12.1301C201.014 12.1301 199.165 14.2963 196.899 14.2303C196.899 14.2303 199.95 13.2672 200.721 11.9351L199.349 11.158C199.349 11.158 197.518 13.2372 195.62 13.1712C195.62 13.1712 199.013 11.71 199.022 11.002C199.022 11.002 197.719 10.3629 197.289 10.3569C197.289 10.3569 195.928 11.8181 194.848 11.686C194.848 11.686 197.008 10.4709 196.917 10.2219C196.917 10.2219 194.995 9.83488 193.912 10.1469C194.891 9.81149 195.943 9.73392 196.963 9.92188C196.615 9.39353 196.117 8.97648 195.532 8.72178C195.532 8.72178 196.667 8.44875 197.426 10.0209C197.426 10.0209 198.915 10.3839 199.074 10.5729C199.074 10.5729 198.549 8.9198 197.71 8.12173C197.71 8.12173 199.074 8.57477 199.446 10.768L200.843 11.518C200.843 11.518 200.267 9.29483 199.571 8.51776C199.571 8.51776 200.892 9.18982 201.179 11.725L202.43 12.6521C202.43 12.6521 202.082 10.696 201.496 9.68186C201.496 9.68186 202.582 10.5639 202.778 12.9312L203.537 13.6452C203.537 13.6452 203.257 12.2231 203.141 11.8211C203.025 11.419 203.119 11.392 203.119 11.392C203.604 12.1703 203.861 13.0654 203.861 13.9782C203.861 13.9782 205.337 15.5354 205.444 15.4574Z" fill="#757575"/>
<path opacity="0.1" d="M181.153 15.9914C181.153 15.9914 169.59 14.7253 170.545 22.793C170.545 22.793 170.2 24.1911 171.46 24.8932C171.46 24.8932 171.512 24.2931 172.681 24.5632C173.094 24.6506 173.515 24.6918 173.938 24.6862C174.508 24.6761 175.06 24.4833 175.509 24.1371V24.1371C175.509 24.1371 178.837 22.976 180.39 17.8006C180.39 17.8006 181.385 16.7055 181.364 16.4085L179.365 17.1345C179.365 17.1345 179.975 18.5536 179.365 19.6817C179.365 19.6817 179.429 17.1885 179.06 17.2275C178.984 17.2275 178.02 17.6596 178.02 17.6596C178.02 17.6596 179.045 20.1348 178.087 21.8599C178.087 21.8599 178.569 18.8957 177.651 17.8276L176.232 18.5476C176.232 18.5476 177.452 21.1129 176.43 23.105C176.43 23.105 176.827 19.9908 175.933 18.7277L174.636 19.6277C174.636 19.6277 175.771 22.151 174.914 23.8041C174.914 23.8041 175.002 20.1618 174.353 19.8528C174.353 19.8528 173.211 20.7528 173.025 21.1249C173.025 21.1249 173.797 22.955 173.215 23.8701C173.215 23.8701 173.01 21.4309 172.742 21.4069C172.742 21.4069 171.57 22.958 171.399 24.0531C171.505 23.0378 171.88 22.0675 172.485 21.2389C171.852 21.3249 171.259 21.5908 170.777 22.0039C170.777 22.0039 171.003 20.8788 172.772 20.8668C172.772 20.8668 173.733 19.6937 173.993 19.6307C173.993 19.6307 172.244 19.3997 171.155 19.8108C171.155 19.8108 172.147 18.7847 174.325 19.3817L175.61 18.4546C175.61 18.4546 173.288 17.9926 172.305 18.2926C172.305 18.2926 173.483 17.3925 175.942 18.2176L177.324 17.4945C177.324 17.4945 175.375 16.9785 174.194 17.0715C174.194 17.0715 175.466 16.4715 177.727 17.3025L178.709 16.9275C178.709 16.9275 177.278 16.5765 176.857 16.5105C176.436 16.4445 176.421 16.3304 176.421 16.3304C177.343 16.2264 178.277 16.3759 179.118 16.7625C179.118 16.7625 181.174 16.1174 181.153 15.9914Z" fill="#757575"/>
<path opacity="0.1" d="M282.321 104.25C282.321 104.25 270.764 102.984 271.719 111.043C271.719 111.043 271.374 112.441 272.634 113.143C272.634 113.143 272.686 112.543 273.854 112.81C274.267 112.9 274.689 112.942 275.111 112.933C275.682 112.924 276.234 112.731 276.683 112.384V112.384C276.683 112.384 280.011 111.223 281.549 106.05C281.549 106.05 282.543 104.952 282.522 104.658L280.524 105.381C280.524 105.381 281.134 106.803 280.524 107.932C280.524 107.932 280.588 105.435 280.219 105.477C280.142 105.477 279.178 105.906 279.178 105.906C279.178 105.906 280.203 108.382 279.245 110.107C279.245 110.107 279.727 107.145 278.809 106.074L277.39 106.797C277.39 106.797 278.611 109.363 277.592 111.355C277.592 111.355 277.985 108.241 277.091 106.974L275.795 107.875C275.795 107.875 276.93 110.398 276.072 112.048C276.072 112.048 276.161 108.406 275.511 108.1C275.511 108.1 274.373 109 274.184 109.372C274.184 109.372 274.959 111.202 274.373 112.117C274.373 112.117 274.169 109.678 273.9 109.654C273.9 109.654 272.729 111.205 272.558 112.3C272.664 111.285 273.038 110.314 273.644 109.486C273.01 109.57 272.416 109.836 271.935 110.251C271.935 110.251 272.161 109.123 273.931 109.111C273.931 109.111 274.895 107.938 275.151 107.878C275.151 107.878 273.403 107.644 272.314 108.055C272.314 108.055 273.305 107.031 275.487 107.629L276.768 106.701C276.768 106.701 274.474 106.275 273.476 106.569C273.476 106.569 274.654 105.669 277.113 106.491L278.495 105.771C278.495 105.771 276.545 105.255 275.365 105.348C275.365 105.348 276.637 104.748 278.898 105.579L279.88 105.201C279.88 105.201 278.449 104.85 278.028 104.787C277.607 104.724 277.592 104.607 277.592 104.607C278.514 104.501 279.448 104.65 280.289 105.036C280.289 105.036 282.351 104.379 282.321 104.25Z" fill="#757575"/>
<path opacity="0.1" d="M299.988 114.865C299.988 114.865 288.432 113.602 289.386 121.658C289.386 121.658 289.045 123.056 290.302 123.758C290.302 123.758 290.354 123.158 291.522 123.428C291.934 123.516 292.355 123.556 292.776 123.548C293.344 123.537 293.893 123.345 294.341 123.002V123.002C294.341 123.002 297.667 121.841 299.204 116.665C299.204 116.665 300.202 115.57 300.177 115.273L298.179 115.996C298.179 115.996 298.789 117.418 298.179 118.547C298.179 118.547 298.243 116.053 297.874 116.092C297.798 116.092 296.834 116.521 296.834 116.521C296.834 116.521 297.859 118.997 296.901 120.722C296.901 120.722 297.383 117.76 296.465 116.692L295.046 117.412C295.046 117.412 296.266 119.978 295.247 121.97C295.247 121.97 295.641 118.856 294.747 117.592L293.45 118.493C293.45 118.493 294.585 121.016 293.731 122.669C293.731 122.669 293.816 119.024 293.167 118.718C293.167 118.718 292.029 119.618 291.839 119.99C291.839 119.99 292.614 121.82 292.029 122.735C292.029 122.735 291.824 120.296 291.556 120.272C291.556 120.272 290.384 121.823 290.216 122.918C290.322 121.903 290.695 120.933 291.299 120.104C290.666 120.19 290.073 120.456 289.591 120.869C289.591 120.869 289.82 119.741 291.589 119.732C291.589 119.732 292.55 118.559 292.81 118.496C292.81 118.496 291.061 118.264 289.972 118.676C289.972 118.676 290.964 117.649 293.145 118.246L294.427 117.319C294.427 117.319 292.132 116.893 291.135 117.187C291.135 117.187 292.312 116.287 294.771 117.112L296.153 116.389C296.153 116.389 294.204 115.873 293.023 115.966C293.023 115.966 294.295 115.366 296.556 116.197L297.538 115.822C297.538 115.822 296.108 115.471 295.69 115.405C295.272 115.339 295.25 115.225 295.25 115.225C296.173 115.121 297.106 115.271 297.947 115.657C297.947 115.657 300.019 114.994 299.988 114.865Z" fill="#757575"/>
<path opacity="0.1" d="M260.763 25.4543C260.763 25.4543 251.452 18.6046 248.123 26.0243C248.123 26.0243 247.107 27.0594 247.836 28.2985C247.836 28.2985 248.184 27.8155 249.057 28.6165C249.366 28.8993 249.708 29.145 250.076 29.3486C250.574 29.6213 251.149 29.7266 251.714 29.6486V29.6486C251.714 29.6486 255.18 30.3057 259.173 26.6124C259.173 26.6124 260.595 26.1623 260.729 25.8983L258.633 25.5263C258.633 25.5263 258.414 27.0474 257.331 27.7285C257.331 27.7285 258.67 25.6103 258.322 25.4573C258.252 25.4243 257.206 25.3072 257.206 25.3072C257.206 25.3072 256.812 27.9535 255.104 28.9526C255.104 28.9526 257.047 26.6394 256.806 25.2592L255.21 25.1752C255.21 25.1752 254.939 27.9925 253.035 29.2046C253.035 29.2046 254.982 26.7174 254.866 25.1812L253.285 25.3072C253.285 25.3072 252.98 28.0465 251.375 29.0426C251.375 29.0426 253.328 25.9463 252.925 25.3582C252.925 25.3582 251.482 25.5593 251.125 25.7933C251.125 25.7933 250.851 27.7555 249.874 28.2535C249.874 28.2535 250.954 26.0483 250.735 25.8953C250.735 25.8953 248.926 26.6484 248.215 27.5064C248.83 26.6849 249.652 26.0354 250.6 25.6223C250.01 25.3811 249.361 25.3143 248.733 25.4303C248.733 25.4303 249.511 24.5722 251.043 25.4453C251.043 25.4453 252.474 24.9142 252.718 24.9802C252.718 24.9802 251.33 23.9091 250.179 23.7231C250.179 23.7231 251.565 23.3331 253.136 24.9232L254.719 24.7642C254.719 24.7642 252.962 23.2641 251.949 23.012C251.949 23.012 253.423 22.829 255.122 24.7552L256.687 24.8242C256.687 24.8242 255.271 23.4081 254.207 22.898C254.207 22.898 255.61 23.018 257.132 24.8572L258.173 25.0222C258.173 25.0222 257.12 24.0081 256.791 23.7441C256.461 23.4801 256.51 23.3931 256.51 23.3931C257.358 23.7633 258.084 24.3573 258.609 25.1092C258.609 25.1092 260.723 25.5773 260.763 25.4543Z" fill="#757575"/>
<path opacity="0.1" d="M267.957 74.9046C267.957 74.9046 264.748 63.9147 257.529 67.86C257.529 67.86 256.083 68.079 255.903 69.5012C255.903 69.5012 256.477 69.3242 256.675 70.4733C256.748 70.8861 256.871 71.2889 257.041 71.6734C257.267 72.1904 257.659 72.6203 258.158 72.8975V72.8975C258.158 72.8975 260.519 75.4777 265.968 74.9016C265.968 74.9016 267.377 75.3877 267.646 75.2557L266.203 73.7135C266.203 73.7135 265.095 74.7996 263.814 74.6976C263.814 74.6976 266.181 73.7975 265.998 73.4765C265.962 73.4105 265.199 72.6934 265.199 72.6934C265.199 72.6934 263.265 74.5716 261.288 74.3526C261.288 74.3526 264.256 73.6625 264.909 72.4204L263.689 71.4063C263.689 71.4063 261.742 73.4885 259.482 73.3265C259.482 73.3265 262.557 72.4954 263.405 71.2023L262.069 70.3652C262.069 70.3652 260.131 72.3604 258.252 72.2104C258.252 72.2104 261.709 70.8993 261.752 70.1942C261.752 70.1942 260.476 69.4982 260.046 69.4742C260.046 69.4742 258.621 70.8723 257.538 70.6923C257.538 70.6923 259.753 69.5732 259.674 69.3211C259.674 69.3211 257.77 68.8501 256.675 69.1111C257.667 68.8219 258.718 68.7919 259.726 69.0241C259.403 68.4812 258.926 68.0432 258.353 67.764C258.353 67.764 259.5 67.539 260.183 69.1441C260.183 69.1441 261.651 69.5702 261.803 69.7682C261.803 69.7682 261.355 68.091 260.553 67.26C260.553 67.26 261.895 67.77 262.166 69.9782L263.527 70.7913C263.527 70.7913 263.051 68.5411 262.392 67.749C262.392 67.749 263.68 68.4781 263.854 71.0223L265.074 72.0034C265.074 72.0034 264.815 70.0352 264.278 69.0031C264.278 69.0031 265.324 69.9332 265.41 72.3034L266.136 73.0535C266.136 73.0535 265.922 71.6194 265.831 71.2113C265.739 70.8033 265.831 70.7463 265.831 70.7463C266.282 71.5443 266.499 72.4502 266.456 73.3625C266.456 73.3625 267.847 74.9766 267.957 74.9046Z" fill="#757575"/>
<path opacity="0.1" d="M196.438 99.6688C196.438 99.6688 190.205 90.014 184.417 95.7925C184.417 95.7925 183.093 96.3925 183.325 97.8177C183.325 97.8177 183.829 97.4876 184.347 98.5377C184.534 98.9099 184.765 99.2584 185.037 99.5758C185.401 100.009 185.899 100.313 186.455 100.44V100.44C186.455 100.44 189.461 102.264 194.525 100.2C194.525 100.2 196.017 100.278 196.237 100.077L194.406 98.9968C194.406 98.9968 193.653 100.347 192.393 100.602C192.393 100.602 194.412 99.1018 194.141 98.8258C194.089 98.7717 193.149 98.2977 193.149 98.2977C193.149 98.2977 191.828 100.632 189.869 100.971C189.869 100.971 192.521 99.4858 192.795 98.1117L191.334 97.4786C191.334 97.4786 190.062 100.014 187.847 100.479C187.847 100.479 190.562 98.8317 191.004 97.3556L189.479 96.9236C189.479 96.9236 188.191 99.3748 186.346 99.7498C186.346 99.7498 189.287 97.5356 189.125 96.8456C189.125 96.8456 187.703 96.5305 187.294 96.6266C187.294 96.6266 186.327 98.3637 185.235 98.4897C185.235 98.4897 187.041 96.8036 186.892 96.5816C186.892 96.5816 184.93 96.6566 183.954 97.2116C184.825 96.6568 185.828 96.3361 186.864 96.2815C186.4 95.8497 185.818 95.5609 185.189 95.4505C185.189 95.4505 186.224 94.9194 187.325 96.2695C187.325 96.2695 188.85 96.2695 189.061 96.4195C189.061 96.4195 188.146 94.9194 187.142 94.3584C187.142 94.3584 188.576 94.4784 189.467 96.5215L191.007 96.9236C191.007 96.9236 189.906 94.8984 189.049 94.3194C189.049 94.3194 190.492 94.6614 191.386 97.0586L192.826 97.6586C192.826 97.6586 192.014 95.8435 191.2 94.9944C191.2 94.9944 192.469 95.5945 193.228 97.8477L194.144 98.3667C194.144 98.3667 193.534 97.0496 193.317 96.6866C193.1 96.3235 193.186 96.2395 193.186 96.2395C193.846 96.8808 194.312 97.69 194.531 98.5767C194.531 98.5767 196.356 99.7708 196.438 99.6688Z" fill="#757575"/>
<path d="M237.402 50.3385C237.402 50.3385 231.474 40.5006 225.504 46.0991C225.504 46.0991 224.161 46.6692 224.351 48.0913C224.351 48.0913 224.86 47.7733 225.348 48.8384C225.523 49.217 225.743 49.5736 226.004 49.9005C226.355 50.3429 226.844 50.6593 227.395 50.8005V50.8005C227.395 50.8005 230.339 52.7147 235.468 50.8005C235.468 50.8005 236.957 50.9235 237.183 50.7285L235.392 49.5944C235.392 49.5944 234.599 50.9175 233.329 51.1366C233.329 51.1366 235.395 49.6874 235.135 49.4144C235.081 49.3574 234.159 48.8534 234.159 48.8534C234.159 48.8534 232.765 51.1486 230.803 51.4276C230.803 51.4276 233.5 50.0235 233.814 48.6613L232.374 47.9953C232.374 47.9953 231.023 50.4945 228.793 50.8935C228.793 50.8935 231.56 49.3304 232.048 47.8693L230.541 47.3892C230.541 47.3892 229.174 49.7894 227.319 50.1195C227.319 50.1195 230.327 47.9953 230.187 47.3022C230.187 47.3022 228.777 46.9422 228.356 47.0262C228.356 47.0262 227.334 48.7334 226.239 48.8264C226.239 48.8264 228.097 47.2002 227.957 46.9722C227.957 46.9722 225.992 46.9872 225 47.5122C225.889 46.9854 226.901 46.6958 227.938 46.6722C227.487 46.2262 226.914 45.9196 226.288 45.7901C226.288 45.7901 227.34 45.289 228.424 46.6722C228.424 46.6722 229.949 46.7232 230.153 46.8762C230.153 46.8762 229.29 45.3761 228.301 44.758C228.301 44.758 229.729 44.92 230.556 46.9902L232.082 47.4402C232.082 47.4402 231.047 45.3821 230.205 44.776C230.205 44.776 231.639 45.163 232.457 47.5843L233.875 48.2353C233.875 48.2353 233.122 46.3961 232.35 45.5351C232.35 45.5351 233.598 46.1741 234.29 48.4483L235.184 48.9944C235.184 48.9944 234.611 47.6593 234.409 47.2902C234.208 46.9212 234.293 46.8402 234.293 46.8402C234.933 47.5012 235.373 48.3238 235.566 49.2164C235.566 49.2164 237.314 50.4375 237.402 50.3385Z" fill="#757575"/>
<path d="M199.898 71.0253C199.898 71.0253 200.203 59.5943 192.127 61.2054C192.127 61.2054 190.681 60.9864 190.071 62.2885C190.071 62.2885 190.681 62.2885 190.51 63.4436C190.454 63.8555 190.448 64.2724 190.492 64.6857C190.547 65.2463 190.788 65.7735 191.178 66.1859C191.178 66.1859 192.633 69.3481 198.006 70.4222C198.006 70.4222 199.199 71.3073 199.498 71.2593L198.583 69.3631C198.583 69.3631 197.195 70.0652 196.002 69.5882C196.002 69.5882 198.534 69.4411 198.464 69.0751C198.464 69.0001 197.939 68.088 197.939 68.088C197.939 68.088 195.517 69.3031 193.701 68.5051C193.701 68.5051 196.752 68.7301 197.75 67.743L196.899 66.4139C196.899 66.4139 194.403 67.818 192.298 66.9899C192.298 66.9899 195.486 67.1159 196.694 66.1348L195.678 64.9347C195.678 64.9347 193.216 66.2609 191.471 65.5588C191.471 65.5588 195.169 65.3398 195.437 64.6767C195.437 64.6767 194.437 63.6356 194.034 63.4766C194.034 63.4766 192.246 64.3767 191.27 63.8907C191.27 63.8907 193.71 63.4886 193.726 63.2216C193.726 63.2216 192.057 62.2045 190.931 62.1295C191.969 62.1477 192.984 62.4333 193.875 62.9576C193.736 62.3443 193.418 61.7843 192.96 61.3464C192.96 61.3464 194.122 61.4754 194.281 63.2066C194.281 63.2066 195.553 64.0527 195.636 64.2867C195.636 64.2867 195.724 62.5555 195.215 61.5234C195.215 61.5234 196.337 62.4085 195.916 64.5927L196.963 65.7748C196.963 65.7748 197.201 63.4886 196.819 62.5375C196.819 62.5375 197.82 63.6146 197.204 66.0928L198.049 67.386C198.049 67.386 198.409 65.4328 198.217 64.2837C198.217 64.2837 198.924 65.4838 198.278 67.767L198.741 68.6971C198.741 68.6971 198.976 67.2659 199.007 66.8489C199.037 66.4319 199.153 66.4049 199.153 66.4049C199.337 67.2999 199.264 68.2275 198.943 69.0841C198.943 69.0841 199.763 71.0643 199.898 71.0253Z" fill="#757575"/>
<path opacity="0.1" d="M213.248 216.274C217.786 216.274 221.464 215.663 221.464 214.909C221.464 214.155 217.786 213.544 213.248 213.544C208.711 213.544 205.032 214.155 205.032 214.909C205.032 215.663 208.711 216.274 213.248 216.274Z" fill="#757575"/>
<path opacity="0.1" d="M183.298 237C187.835 237 191.514 236.389 191.514 235.635C191.514 234.881 187.835 234.27 183.298 234.27C178.76 234.27 175.082 234.881 175.082 235.635C175.082 236.389 178.76 237 183.298 237Z" fill="#757575"/>
<path opacity="0.1" d="M28.416 226.382C32.9536 226.382 36.6321 225.771 36.6321 225.017C36.6321 224.263 32.9536 223.652 28.416 223.652C23.8784 223.652 20.2 224.263 20.2 225.017C20.2 225.771 23.8784 226.382 28.416 226.382Z" fill="#757575"/>
<path opacity="0.1" d="M245.615 235.635C250.153 235.635 253.831 235.024 253.831 234.27C253.831 233.516 250.153 232.905 245.615 232.905C241.078 232.905 237.399 233.516 237.399 234.27C237.399 235.024 241.078 235.635 245.615 235.635Z" fill="#757575"/>
<path d="M254.17 218.989C260.945 218.989 266.438 218.076 266.438 216.949C266.438 215.822 260.945 214.909 254.17 214.909C247.395 214.909 241.902 215.822 241.902 216.949C241.902 218.076 247.395 218.989 254.17 218.989Z" fill="#757575"/>
<path d="M259.256 213.61C259.816 213.162 260.224 212.557 260.424 211.876C260.577 211.186 260.278 210.361 259.61 210.109C258.859 209.827 258.057 210.337 257.447 210.853C256.837 211.369 256.144 211.96 255.348 211.852C255.756 211.487 256.062 211.024 256.235 210.508C256.409 209.992 256.443 209.441 256.336 208.909C256.302 208.688 256.207 208.48 256.062 208.308C255.644 207.87 254.89 208.059 254.39 208.404C252.803 209.503 252.361 211.621 252.352 213.529C252.193 212.842 252.327 212.125 252.324 211.429C252.321 210.733 252.123 209.929 251.516 209.563C251.143 209.358 250.722 209.255 250.295 209.263C249.581 209.239 248.785 209.308 248.3 209.821C247.69 210.457 247.852 211.528 248.376 212.221C248.901 212.914 249.704 213.361 250.442 213.847C251.033 214.194 251.537 214.667 251.918 215.23C251.962 215.309 251.998 215.391 252.025 215.476H256.498C257.499 214.98 258.427 214.352 259.256 213.61V213.61Z" fill="#757575"/>
<path d="M22.9 218.671C22.9 218.671 27.5831 218.53 29.0018 217.54C30.4205 216.55 36.2111 215.371 36.5619 216.958C36.9128 218.545 43.6034 224.846 38.3131 224.888C33.0229 224.93 26.0211 224.078 24.6116 223.232C23.202 222.386 22.9 218.671 22.9 218.671Z" fill="#A8A8A8"/>
<path opacity="0.2" d="M38.4016 224.336C33.1114 224.378 26.1095 223.526 24.7 222.68C23.6261 222.038 23.199 219.73 23.0556 218.665H22.9C22.9 218.665 23.2051 222.383 24.6055 223.226C26.0058 224.069 33.0168 224.924 38.307 224.882C39.8325 224.882 40.3603 224.336 40.3328 223.544C40.1193 224.027 39.5365 224.327 38.4016 224.336Z" fill="black"/>
</g>
<defs>
<linearGradient id="paint0_linear" x1="68.0319" y1="130.038" x2="163.259" y2="130.038" gradientUnits="userSpaceOnUse">
<stop stop-color="#808080" stop-opacity="0.25"/>
<stop offset="0.54" stop-color="#808080" stop-opacity="0.12"/>
<stop offset="1" stop-color="#808080" stop-opacity="0.1"/>
</linearGradient>
<clipPath id="clip0">
<rect width="308" height="237" fill="white"/>
</clipPath>
</defs>
</svg>
