<svg width="191" height="170" viewBox="0 0 191 170" fill="none" xmlns="http://www.w3.org/2000/svg">
<g clip-path="url(#clip0)">
<path d="M115.606 9.53788L16.0968 29.4991L45.597 158.039L145.106 138.078L115.606 9.53788Z" fill="#E0E0E0"/>
<g opacity="0.5">
<path opacity="0.5" d="M114.424 12.0485L18.2783 31.3351L46.7813 155.53L142.927 136.243L114.424 12.0485Z" fill="url(#paint0_linear)"/>
</g>
<path d="M113.409 13.2082L19.7108 32.0038L47.5841 153.455L141.282 134.659L113.409 13.2082Z" fill="#FAFAFA"/>
<path d="M88.7155 12.6541L42.233 21.9784L44.649 32.5052L91.1314 23.1809L88.7155 12.6541Z" fill="url(#paint1_linear)"/>
<path d="M63.1132 7.03464C59.5245 7.7553 57.2539 11.1235 58.0433 14.557C58.8328 17.9904 62.3796 20.1938 65.9613 19.4731C69.543 18.7525 71.8206 15.3843 71.0311 11.9508C70.2417 8.51733 66.7019 6.31397 63.1132 7.03464ZM65.3651 16.8539C64.6067 17.023 63.8115 16.9772 63.081 16.7222C62.3506 16.4673 61.7178 16.0148 61.2634 15.4223C60.8091 14.8299 60.5537 14.1244 60.5298 13.3958C60.5059 12.6672 60.7145 11.9484 61.1292 11.331C61.5439 10.7137 62.1458 10.2258 62.8582 9.92944C63.5706 9.63311 64.3612 9.54179 65.1294 9.66712C65.8975 9.79245 66.6083 10.1288 67.1712 10.6332C67.7341 11.1376 68.1236 11.7873 68.2901 12.4995C68.4052 12.965 68.4207 13.4472 68.3358 13.9184C68.2509 14.3895 68.0673 14.8403 67.7955 15.245C67.5237 15.6496 67.1691 16 66.752 16.2761C66.3349 16.5522 65.8636 16.7486 65.3651 16.8539Z" fill="#999999"/>
<path d="M88.1223 12.3008L42.6189 21.4287L44.9284 31.4914L90.4317 22.3635L88.1223 12.3008Z" fill="#BBBBBB"/>
<path d="M63.1132 7.03464C61.8554 7.28703 60.706 7.88243 59.8101 8.74557C58.9143 9.6087 58.3124 10.7008 58.0804 11.8838C57.8484 13.0667 57.9969 14.2874 58.507 15.3915C59.0171 16.4956 59.8659 17.4335 60.9462 18.0865C62.0264 18.7396 63.2895 19.0786 64.5758 19.0605C65.862 19.0425 67.1137 18.6683 68.1725 17.9852C69.2313 17.3021 70.0496 16.3408 70.524 15.2229C70.9985 14.105 71.1077 12.8807 70.8379 11.7048C70.6587 10.9239 70.3168 10.1837 69.8316 9.5264C69.3464 8.86909 68.7275 8.30756 68.0102 7.87389C67.2929 7.44022 66.4912 7.1429 65.651 6.9989C64.8107 6.8549 63.9484 6.86704 63.1132 7.03464V7.03464ZM65.265 16.4185C64.539 16.5641 63.7832 16.5052 63.093 16.2492C62.4028 15.9932 61.8093 15.5516 61.3876 14.9802C60.9659 14.4089 60.7349 13.7334 60.7238 13.0393C60.7127 12.3452 60.922 11.6636 61.3253 11.0808C61.7286 10.4979 62.3076 10.0399 62.9893 9.76473C63.671 9.48956 64.4247 9.40956 65.155 9.53485C65.8853 9.66015 66.5595 9.9851 67.0923 10.4686C67.625 10.9521 67.9925 11.5725 68.1481 12.2513C68.3568 13.1613 68.1702 14.1116 67.6296 14.893C67.0889 15.6745 66.2384 16.2232 65.265 16.4185V16.4185Z" fill="#999999"/>
<path d="M161.832 25.4539H60.0578V156.919H161.832V25.4539Z" fill="#E0E0E0"/>
<g opacity="0.5">
<path opacity="0.5" d="M160.113 27.6769H61.7788V154.698H160.113V27.6769Z" fill="url(#paint2_linear)"/>
</g>
<path d="M158.86 28.6131H63.0293V152.828H158.86V28.6131Z" fill="white"/>
<path d="M134.841 23.2267H87.3002V33.9931H134.841V23.2267Z" fill="url(#paint3_linear)"/>
<path d="M111.07 12.7172C107.4 12.7172 104.424 15.565 104.424 19.079C104.424 22.5931 107.4 25.4409 111.07 25.4409C114.741 25.4409 117.717 22.5931 117.717 19.079C117.717 15.565 114.741 12.7172 111.07 12.7172ZM111.07 22.7499C110.29 22.7672 109.522 22.5667 108.864 22.174C108.206 21.7813 107.689 21.2142 107.377 20.5452C107.066 19.8762 106.975 19.1355 107.115 18.4178C107.256 17.7001 107.623 17.0379 108.168 16.5158C108.713 15.9937 109.412 15.6353 110.176 15.4865C110.94 15.3376 111.735 15.405 112.458 15.6801C113.18 15.9552 113.799 16.4255 114.235 17.0309C114.671 17.6363 114.903 18.3494 114.904 19.079C114.911 20.0381 114.512 20.9608 113.794 21.6455C113.075 22.3301 112.096 22.7209 111.07 22.7324V22.7499Z" fill="url(#paint4_linear)"/>
<path d="M134.34 22.7651H87.8009V33.0568H134.34V22.7651Z" fill="#BBBBBB"/>
<path d="M111.07 12.7172C109.784 12.7172 108.526 13.0738 107.457 13.742C106.387 14.4102 105.553 15.3599 105.061 16.4711C104.569 17.5822 104.44 18.8049 104.691 19.9845C104.942 21.1641 105.562 22.2477 106.471 23.0981C107.381 23.9485 108.54 24.5277 109.801 24.7623C111.063 24.997 112.371 24.8765 113.56 24.4163C114.748 23.956 115.764 23.1766 116.479 22.1766C117.193 21.1766 117.575 20.0009 117.575 18.7982C117.575 17.1854 116.89 15.6387 115.67 14.4983C114.45 13.3579 112.795 12.7172 111.07 12.7172ZM111.07 22.3079C110.329 22.307 109.604 22.1007 108.987 21.7149C108.371 21.3291 107.89 20.7812 107.606 20.1403C107.323 19.4994 107.248 18.7943 107.393 18.114C107.538 17.4337 107.895 16.8088 108.419 16.318C108.943 15.8273 109.611 15.4927 110.339 15.3567C111.066 15.2206 111.82 15.2891 112.506 15.5536C113.192 15.818 113.779 16.2665 114.192 16.8424C114.606 17.4184 114.827 18.0959 114.829 18.7895C114.829 19.2506 114.731 19.7071 114.542 20.1329C114.353 20.5588 114.076 20.9456 113.727 21.2713C113.378 21.5971 112.964 21.8553 112.508 22.0313C112.052 22.2073 111.564 22.2976 111.07 22.297V22.3079Z" fill="#999999"/>
<g opacity="0.5">
<path opacity="0.5" d="M4.43176 160.472H3.55612V165.116H4.43176V160.472Z" fill="#47E6B1"/>
<path opacity="0.5" d="M6.47876 163.205V162.386H1.51141V163.205H6.47876Z" fill="#47E6B1"/>
</g>
<g opacity="0.5">
<path opacity="0.5" d="M106.019 0H105.144V4.64402H106.019V0Z" fill="#47E6B1"/>
<path opacity="0.5" d="M108.066 2.73022V1.91159L103.099 1.91159V2.73022L108.066 2.73022Z" fill="#47E6B1"/>
</g>
<path opacity="0.5" d="M179.57 168.204C179.329 168.105 179.134 167.928 179.024 167.704C178.913 167.48 178.895 167.227 178.972 166.991C178.984 166.955 178.992 166.918 178.995 166.88V166.88C179.002 166.772 178.972 166.665 178.908 166.575C178.845 166.484 178.752 166.415 178.644 166.378C178.536 166.341 178.417 166.337 178.306 166.367C178.196 166.398 178.098 166.461 178.028 166.547V166.547C178.004 166.577 177.984 166.61 177.968 166.645C177.863 166.871 177.673 167.052 177.433 167.156C177.194 167.259 176.923 167.276 176.671 167.204C176.632 167.193 176.592 167.186 176.552 167.183V167.183C176.437 167.176 176.322 167.205 176.225 167.264C176.129 167.323 176.055 167.409 176.015 167.511C175.975 167.612 175.971 167.723 176.004 167.826C176.036 167.93 176.104 168.021 176.196 168.086V168.086C176.228 168.109 176.263 168.128 176.301 168.143C176.542 168.241 176.736 168.419 176.847 168.643C176.957 168.866 176.976 169.12 176.899 169.356C176.887 169.392 176.879 169.429 176.876 169.467V169.467C176.869 169.574 176.899 169.681 176.962 169.772C177.026 169.862 177.118 169.931 177.227 169.969C177.335 170.006 177.453 170.01 177.564 169.979C177.675 169.949 177.773 169.886 177.842 169.8V169.8C177.866 169.769 177.887 169.736 177.903 169.702C178.008 169.476 178.198 169.294 178.437 169.191C178.676 169.088 178.948 169.07 179.2 169.142C179.238 169.154 179.278 169.161 179.319 169.164C179.434 169.17 179.548 169.142 179.645 169.083C179.742 169.024 179.816 168.937 179.856 168.836C179.896 168.735 179.9 168.624 179.867 168.52C179.835 168.417 179.767 168.325 179.675 168.26V168.26C179.643 168.238 179.607 168.219 179.57 168.204V168.204Z" fill="#4D8AF0"/>
<path opacity="0.5" d="M31.8279 123.558C31.5864 123.459 31.392 123.281 31.2816 123.058C31.1712 122.834 31.1527 122.58 31.2294 122.345C31.2418 122.309 31.2496 122.272 31.2527 122.234V122.234C31.2597 122.126 31.2293 122.019 31.1661 121.928C31.1029 121.838 31.0102 121.769 30.9018 121.732C30.7934 121.694 30.675 121.691 30.5641 121.721C30.4533 121.751 30.3558 121.814 30.2862 121.901V121.901C30.262 121.931 30.2417 121.964 30.2257 121.999C30.1206 122.224 29.9303 122.406 29.6911 122.509C29.4519 122.613 29.1805 122.63 28.9286 122.558C28.89 122.547 28.8501 122.539 28.8098 122.536V122.536C28.6944 122.53 28.5799 122.558 28.4832 122.617C28.3865 122.677 28.3126 122.763 28.2727 122.865C28.2327 122.966 28.2287 123.077 28.2613 123.18C28.2938 123.284 28.3612 123.375 28.4535 123.44V123.44C28.4859 123.463 28.5211 123.482 28.5583 123.497C28.7998 123.595 28.9942 123.773 29.1046 123.996C29.2149 124.22 29.2335 124.474 29.1568 124.709C29.1444 124.745 29.1366 124.783 29.1335 124.82C29.1265 124.928 29.1569 125.035 29.2201 125.126C29.2833 125.216 29.376 125.285 29.4844 125.323C29.5928 125.36 29.7112 125.364 29.8221 125.333C29.9329 125.303 30.0304 125.24 30.0999 125.153V125.153C30.1242 125.123 30.1445 125.09 30.1605 125.056C30.2656 124.83 30.4559 124.648 30.6951 124.545C30.9342 124.442 31.2057 124.424 31.4576 124.496C31.4962 124.508 31.536 124.515 31.5764 124.518C31.6917 124.524 31.8063 124.496 31.903 124.437C31.9997 124.378 32.0735 124.291 32.1135 124.19C32.1535 124.088 32.1575 123.978 32.1249 123.874C32.0924 123.77 32.025 123.679 31.9327 123.614V123.614C31.9003 123.592 31.8651 123.573 31.8279 123.558Z" fill="#FDD835"/>
<path opacity="0.5" d="M154.885 14.8444C154.643 14.7461 154.449 14.5682 154.338 14.3446C154.228 14.121 154.21 13.8672 154.286 13.6317C154.299 13.5956 154.306 13.5584 154.31 13.5206C154.317 13.4128 154.286 13.3057 154.223 13.2153C154.16 13.1249 154.067 13.0558 153.959 13.0185C153.85 12.9811 153.732 12.9774 153.621 13.0078C153.51 13.0383 153.413 13.1013 153.343 13.1875V13.1875C153.319 13.2178 153.299 13.2507 153.283 13.2855C153.177 13.5113 152.987 13.6931 152.748 13.7962C152.509 13.8994 152.237 13.9168 151.985 13.845C151.947 13.8334 151.907 13.8261 151.867 13.8232V13.8232C151.751 13.8168 151.637 13.8451 151.54 13.9042C151.443 13.9633 151.369 14.0499 151.33 14.1513C151.29 14.2527 151.286 14.3634 151.318 14.467C151.351 14.5707 151.418 14.6617 151.51 14.7268V14.7268C151.543 14.7494 151.578 14.7684 151.615 14.7834C151.857 14.8817 152.051 15.0596 152.161 15.2832C152.272 15.5068 152.29 15.7605 152.214 15.9961C152.201 16.0322 152.193 16.0694 152.19 16.1072V16.1072C152.183 16.215 152.214 16.322 152.277 16.4125C152.34 16.5029 152.433 16.5719 152.541 16.6093C152.65 16.6467 152.768 16.6504 152.879 16.62C152.99 16.5895 153.087 16.5265 153.157 16.4403V16.4403C153.181 16.4099 153.201 16.3771 153.217 16.3423C153.322 16.1165 153.513 15.9347 153.752 15.8315C153.991 15.7284 154.262 15.711 154.514 15.7828C154.553 15.7943 154.593 15.8016 154.633 15.8045C154.749 15.811 154.863 15.7826 154.96 15.7235C155.057 15.6645 155.13 15.5778 155.17 15.4765C155.21 15.3751 155.214 15.2644 155.182 15.1608C155.149 15.0571 155.082 14.966 154.99 14.901V14.901C154.957 14.8783 154.922 14.8593 154.885 14.8444V14.8444Z" fill="#FDD835"/>
<path opacity="0.5" d="M189.249 70.1067C190.217 70.1067 191.002 69.3727 191.002 68.4672C191.002 67.5618 190.217 66.8278 189.249 66.8278C188.28 66.8278 187.495 67.5618 187.495 68.4672C187.495 69.3727 188.28 70.1067 189.249 70.1067Z" fill="#F55F44"/>
<path opacity="0.5" d="M53.7327 164.202C54.7012 164.202 55.4863 163.468 55.4863 162.563C55.4863 161.657 54.7012 160.923 53.7327 160.923C52.7642 160.923 51.9791 161.657 51.9791 162.563C51.9791 163.468 52.7642 164.202 53.7327 164.202Z" fill="#F55F44"/>
<path opacity="0.5" d="M171.24 105.543C172.209 105.543 172.994 104.809 172.994 103.904C172.994 102.998 172.209 102.264 171.24 102.264C170.272 102.264 169.486 102.998 169.486 103.904C169.486 104.809 170.272 105.543 171.24 105.543Z" fill="#F55F44"/>
<path opacity="0.5" d="M20.2933 22.617C21.2618 22.617 22.0469 21.883 22.0469 20.9776C22.0469 20.0721 21.2618 19.3381 20.2933 19.3381C19.3248 19.3381 18.5397 20.0721 18.5397 20.9776C18.5397 21.883 19.3248 22.617 20.2933 22.617Z" fill="#4D8AF0"/>
<path opacity="0.5" d="M1.7536 67.3394C2.72208 67.3394 3.50719 66.6054 3.50719 65.7C3.50719 64.7946 2.72208 64.0605 1.7536 64.0605C0.785112 64.0605 0 64.7946 0 65.7C0 66.6054 0.785112 67.3394 1.7536 67.3394Z" fill="#47E6B1"/>
</g>
<defs>
<linearGradient id="paint0_linear" x1="94.8531" y1="145.887" x2="69.8011" y2="20.9998" gradientUnits="userSpaceOnUse">
<stop stop-color="#808080" stop-opacity="0.25"/>
<stop offset="0.54" stop-color="#808080" stop-opacity="0.12"/>
<stop offset="1" stop-color="#808080" stop-opacity="0.1"/>
</linearGradient>
<linearGradient id="paint1_linear" x1="25571.8" y1="-3113.19" x2="25466.8" y2="-3636.65" gradientUnits="userSpaceOnUse">
<stop stop-color="#808080" stop-opacity="0.25"/>
<stop offset="0.54" stop-color="#808080" stop-opacity="0.12"/>
<stop offset="1" stop-color="#808080" stop-opacity="0.1"/>
</linearGradient>
<linearGradient id="paint2_linear" x1="46908.2" y1="90280.3" x2="46908.2" y2="16174.7" gradientUnits="userSpaceOnUse">
<stop stop-color="#808080" stop-opacity="0.25"/>
<stop offset="0.54" stop-color="#808080" stop-opacity="0.12"/>
<stop offset="1" stop-color="#808080" stop-opacity="0.1"/>
</linearGradient>
<linearGradient id="paint3_linear" x1="22761.2" y1="1704.18" x2="22761.2" y2="1171.79" gradientUnits="userSpaceOnUse">
<stop stop-color="#808080" stop-opacity="0.25"/>
<stop offset="0.54" stop-color="#808080" stop-opacity="0.12"/>
<stop offset="1" stop-color="#808080" stop-opacity="0.1"/>
</linearGradient>
<linearGradient id="paint4_linear" x1="8968.9" y1="2257.05" x2="8968.9" y2="1513.48" gradientUnits="userSpaceOnUse">
<stop stop-color="#808080" stop-opacity="0.25"/>
<stop offset="0.54" stop-color="#808080" stop-opacity="0.12"/>
<stop offset="1" stop-color="#808080" stop-opacity="0.1"/>
</linearGradient>
<clipPath id="clip0">
<rect width="191" height="170" fill="white"/>
</clipPath>
</defs>
</svg>
